<?xml version="1.0" standalone="no"?>
<!DOCTYPE svg PUBLIC "-//W3C//DTD SVG 20010904//EN"
 "http://www.w3.org/TR/2001/REC-SVG-20010904/DTD/svg10.dtd">
<svg version="1.0" xmlns="http://www.w3.org/2000/svg"
 width="1024.000000pt" height="1024.000000pt" viewBox="0 0 1024.000000 1024.000000"
 preserveAspectRatio="xMidYMid meet">

<g transform="translate(0.000000,1024.000000) scale(0.100000,-0.100000)"
fill="#000000" stroke="none">
<path d="M7125 8854 c-291 -27 -458 -56 -606 -103 l-96 -31 -275 0 c-490 0
-800 -40 -1157 -151 -258 -79 -429 -165 -796 -399 -49 -31 -139 -88 -200 -125
-60 -38 -158 -101 -217 -141 -59 -40 -127 -84 -151 -99 l-44 -25 -18 26 c-29
45 -95 101 -210 178 -60 41 -137 103 -170 138 -33 34 -44 48 -25 30 64 -57 70
-45 70 139 0 166 1 164 -127 163 -80 0 -109 -5 -158 -25 -168 -69 -126 -242
74 -301 24 -7 69 -34 100 -60 31 -26 118 -91 194 -144 76 -54 143 -106 148
-115 5 -10 9 -31 9 -48 0 -34 -6 -37 -95 -46 -33 -4 -139 -20 -235 -36 -374
-63 -596 -99 -890 -143 -311 -47 -343 -53 -580 -107 -348 -79 -612 -193 -915
-397 -189 -127 -321 -238 -455 -383 -198 -214 -300 -352 -300 -406 0 -35 1
-34 51 43 186 285 377 482 551 570 38 19 68 37 68 39 0 3 -27 -8 -60 -25 -106
-54 -96 -46 185 148 329 227 597 337 1035 426 81 17 549 94 875 146 110 17
270 45 355 62 85 16 191 32 235 34 44 3 98 6 121 8 l41 3 -36 -34 c-40 -39
-111 -87 -117 -80 -3 2 20 21 51 41 30 21 55 40 55 43 0 3 -6 0 -14 -6 -9 -7
-43 -9 -102 -5 -78 5 -104 2 -209 -24 -66 -17 -132 -33 -147 -36 -16 -4 -28
-13 -28 -22 0 -19 98 -64 143 -65 19 -1 -4 -8 -57 -19 -48 -10 -91 -22 -95
-26 -3 -4 6 -4 22 0 15 3 48 9 75 12 l47 5 -25 -18 c-215 -158 -301 -236 -362
-331 -39 -61 -43 -73 -43 -132 0 -116 66 -194 250 -294 132 -72 257 -123 446
-184 495 -160 1023 -236 1784 -256 66 -2 -4 -2 -155 0 -290 4 -421 12 -690 45
-281 34 -424 61 -775 144 -132 31 -185 38 -185 25 0 -6 -4 -9 -10 -5 -10 6
-230 -102 -242 -119 -4 -6 -8 -8 -8 -3 0 4 -27 -6 -60 -23 -32 -16 -92 -43
-132 -59 -40 -16 -96 -41 -124 -55 -29 -14 -55 -26 -59 -26 -17 0 -183 -79
-190 -90 -3 -6 -13 -10 -21 -10 -19 0 -97 -35 -146 -66 -21 -13 -42 -24 -48
-24 -12 0 -64 -23 -215 -95 -60 -29 -132 -63 -160 -75 -27 -13 -61 -31 -75
-40 -14 -10 -60 -32 -103 -50 -43 -18 -84 -38 -92 -46 -7 -8 -27 -14 -44 -14
-16 0 -33 -4 -36 -10 -3 -5 -14 -10 -23 -10 -10 0 -34 -9 -55 -20 -20 -11 -51
-20 -68 -20 -16 0 -28 -4 -25 -8 3 -5 0 -9 -7 -10 -64 -9 -86 -16 -81 -24 3
-5 -1 -8 -9 -6 -16 3 -281 -238 -448 -409 -140 -143 -362 -393 -405 -457 -19
-28 -34 -46 -34 -40 0 15 51 85 119 164 92 107 305 344 316 352 5 4 10 15 11
25 1 15 -6 17 -47 15 -27 -2 -49 -8 -49 -13 0 -5 -14 -9 -31 -9 -17 0 -58 -7
-92 -16 -58 -15 -76 -15 -262 0 -105 9 -193 29 -240 55 -42 23 -52 35 -65 74
-8 26 -18 47 -22 47 -5 0 -8 -95 -8 -212 0 -205 1 -213 22 -237 13 -14 16 -20
8 -13 -8 6 -17 12 -22 12 -13 0 -10 -2221 3 -2236 17 -21 26 -17 33 16 6 34
25 40 33 11 3 -11 11 -17 17 -15 17 6 42 -24 30 -35 -5 -5 -18 -11 -29 -13
-16 -3 -20 -11 -18 -38 1 -19 -4 -39 -10 -43 -8 -6 -6 -7 5 -4 9 3 19 3 23 -1
3 -4 20 -7 36 -8 26 -1 29 2 29 27 0 25 4 29 30 29 39 0 50 -23 50 -103 0 -60
8 -77 35 -77 2 0 6 19 10 42 5 29 10 37 16 26 5 -9 20 -13 43 -12 32 3 35 0
41 -29 4 -18 12 -37 17 -44 17 -22 -1 -33 -43 -27 -41 7 -56 -9 -19 -21 11 -4
18 -11 15 -16 -4 -5 5 -9 19 -9 14 0 26 5 26 12 0 27 29 44 70 40 33 -3 43 -9
52 -31 6 -14 10 -32 9 -38 -5 -33 20 -53 63 -53 40 0 45 -3 55 -31 6 -18 11
-42 11 -54 0 -20 7 -23 57 -28 51 -5 78 -20 68 -38 -3 -3 4 -15 15 -27 13 -14
16 -22 7 -25 -7 -2 10 -7 36 -11 27 -4 51 -5 54 -3 2 3 5 19 5 36 1 30 2 30
48 27 57 -4 79 -14 59 -27 -10 -6 -11 -9 -1 -9 6 0 12 -7 12 -16 0 -28 27 -44
75 -44 42 0 47 -3 56 -29 9 -26 49 -51 49 -31 0 16 52 -4 59 -22 5 -15 19 -20
59 -23 58 -4 86 -24 98 -70 6 -26 8 -27 15 -10 7 18 8 17 8 -6 1 -31 29 -59
59 -59 20 0 22 5 22 56 l0 57 55 -6 c30 -3 59 -8 65 -12 5 -3 10 -27 10 -53 0
-34 3 -43 10 -32 5 8 10 10 10 5 0 -6 25 -11 55 -13 l55 -3 0 50 c0 47 2 51
23 51 28 0 47 -17 47 -42 0 -10 7 -18 15 -18 9 0 15 -9 15 -25 0 -24 -3 -25
-54 -25 l-55 0 9 -30 c5 -16 6 -30 3 -30 -3 0 5 -9 18 -19 22 -18 25 -18 31
-3 5 13 7 12 7 -7 1 -21 3 -22 18 -10 9 8 19 13 22 11 3 -2 11 21 17 50 7 29
12 48 13 43 1 -6 18 -9 42 -7 48 5 55 -1 63 -49 10 -66 12 -68 74 -66 l57 2 3
53 c3 44 6 52 23 52 10 0 19 -5 19 -11 0 -8 12 -10 35 -6 37 6 37 6 48 -83 2
-11 17 -16 56 -17 69 -3 67 -2 70 -68 1 -32 3 -35 34 -36 30 -1 31 -1 7 -9
-20 -6 -14 -8 26 -9 l51 -1 9 53 9 52 55 0 c54 0 55 -1 58 -30 7 -74 7 -75 72
-73 l60 2 6 48 c4 27 11 51 16 54 17 11 78 -6 78 -21 0 -8 4 -15 9 -15 5 0 12
-16 15 -35 7 -34 23 -43 61 -35 5 1 24 -1 42 -5 31 -5 33 -9 33 -46 0 -26 5
-42 15 -45 8 -4 13 -10 10 -14 -5 -7 85 -20 94 -13 2 1 6 26 9 54 l5 51 50 -5
c27 -4 52 -9 55 -11 2 -3 7 -26 9 -51 3 -25 11 -45 17 -44 6 1 38 1 71 0 l60
-1 -3 -52 -3 -53 52 -3 c60 -3 69 4 69 64 l0 41 50 1 c49 1 50 0 70 -40 11
-22 18 -44 15 -48 -5 -8 29 -26 69 -35 34 -7 66 17 59 44 -3 11 0 22 6 25 7 5
11 -5 12 -26 0 -18 3 -27 6 -20 2 7 22 12 45 12 39 0 40 -1 36 -30 -3 -17 -1
-33 4 -36 5 -3 7 0 6 8 -2 10 15 13 72 12 157 -2 160 -3 160 -21 1 -36 29 -58
75 -59 43 -2 45 -1 51 31 4 23 11 33 22 33 10 -1 33 2 53 6 36 8 36 8 49 -37
8 -32 16 -44 26 -40 8 3 14 0 14 -7 0 -7 7 -10 15 -6 8 3 15 1 15 -4 0 -6 11
-10 25 -10 22 0 25 5 25 33 0 67 8 77 58 77 49 0 71 -18 72 -57 0 -24 20 -33
20 -10 0 7 4 6 10 -4 6 -10 21 -15 42 -14 31 1 33 4 38 41 l5 39 68 3 67 3 1
-38 c1 -32 2 -34 8 -13 9 33 41 40 42 8 l0 -23 10 24 c7 17 15 22 29 18 13 -3
20 0 20 9 0 10 -12 14 -41 14 -22 0 -49 5 -59 10 -16 9 -18 14 -8 34 6 15 16
22 24 19 8 -3 14 1 14 8 0 9 3 10 8 4 14 -20 42 -16 51 6 7 20 9 17 14 -20 3
-23 8 -45 11 -48 2 -3 27 -2 55 2 49 7 51 8 57 43 11 68 14 74 30 61 11 -9 14
-9 14 0 0 8 14 11 38 9 36 -3 37 -4 40 -46 l3 -42 53 0 c57 0 65 9 66 66 0 24
23 30 145 38 61 5 89 23 78 52 -3 8 0 14 5 14 6 0 12 8 14 17 3 16 48 27 48
11 0 -15 28 -8 35 10 6 16 7 16 21 -2 8 -11 15 -34 15 -50 1 -17 3 -23 6 -14
2 10 8 18 13 18 5 0 7 -7 4 -15 -5 -11 1 -15 24 -15 17 0 37 -3 46 -6 13 -5
16 1 16 32 0 52 10 64 56 70 82 11 80 10 76 53 -4 36 -1 42 23 51 14 5 39 10
55 10 24 0 31 -5 36 -27 12 -55 15 -62 29 -57 7 3 16 1 20 -5 7 -12 55 -14 70
-3 17 12 16 82 -1 82 -8 0 -14 7 -14 15 0 8 -4 15 -10 15 -5 0 -10 -4 -10 -10
0 -5 -4 -10 -10 -10 -5 0 -10 14 -10 30 0 17 5 30 10 30 6 0 10 -4 10 -10 0
-5 5 -10 11 -10 6 0 9 8 6 19 -3 13 0 17 12 14 13 -3 16 -13 13 -40 -4 -35 -4
-36 24 -29 16 4 40 7 54 7 39 -1 50 12 57 67 5 48 8 52 38 58 17 3 45 4 61 2
23 -2 29 -7 27 -25 -2 -13 2 -23 7 -23 6 0 10 5 10 10 0 6 5 10 10 10 6 0 10
-9 10 -20 0 -11 5 -20 10 -20 6 0 10 4 10 9 0 4 12 6 28 3 26 -4 26 -4 7 12
-18 14 -18 15 -2 16 9 0 17 5 17 10 0 14 -37 12 -43 -2 -3 -8 -6 -5 -6 6 -1
12 -6 16 -17 12 -38 -14 -51 54 -16 82 13 10 13 12 1 12 -8 1 -1 7 16 14 54
23 69 15 77 -39 6 -43 28 -88 28 -58 0 7 10 13 23 15 12 2 26 13 32 25 6 15
15 21 27 17 17 -5 24 9 32 61 2 10 8 21 15 23 8 3 7 8 -5 16 -16 12 -15 13 2
11 11 0 25 -4 32 -9 8 -5 11 -3 10 6 -2 8 5 12 20 11 12 -2 22 2 22 7 0 6 -9
10 -20 10 -29 0 -25 17 5 22 20 4 25 1 25 -14 0 -10 7 -21 16 -25 13 -5 13 -7
2 -14 -8 -6 4 -9 32 -9 60 0 68 7 71 60 4 44 3 45 -26 46 -68 2 -79 7 -30 14
28 4 52 3 55 -1 7 -10 30 -13 81 -11 37 2 37 2 43 56 l7 54 51 7 c43 6 54 4
65 -11 7 -10 13 -27 13 -38 0 -27 46 -51 54 -29 4 8 13 13 21 9 8 -3 15 -1 15
3 0 5 -6 12 -12 14 -8 3 -6 6 5 6 10 1 17 9 17 21 0 16 -7 20 -37 22 -21 0
-45 1 -54 0 -13 -1 -16 9 -17 53 0 53 0 54 34 65 54 18 67 11 78 -44 l11 -49
50 -3 50 -2 0 51 c0 48 -2 52 -25 55 -14 2 -30 10 -37 19 -6 8 -16 12 -22 8
-7 -4 -10 4 -9 20 2 27 8 28 53 9 18 -7 19 -7 4 8 -9 9 -27 18 -40 20 -20 3
-19 5 10 9 30 5 35 3 47 -25 9 -19 13 -23 12 -11 -2 11 2 22 7 25 6 3 11 -11
13 -30 4 -42 12 -47 68 -48 l44 -1 0 42 c0 75 5 82 58 82 39 0 47 -3 50 -20 2
-11 6 -27 9 -35 7 -17 10 -27 12 -38 0 -5 13 -9 29 -9 15 0 34 -2 42 -4 9 -3
16 5 17 21 11 90 9 87 65 89 28 0 53 3 56 5 2 3 7 26 10 51 5 51 24 65 87 65
27 0 34 -4 37 -22 2 -13 9 -22 16 -21 8 2 12 -10 12 -33 0 -26 3 -33 13 -27 6
4 21 8 32 8 14 0 20 7 20 21 0 11 6 28 14 38 8 9 11 19 7 23 -3 3 -6 1 -6 -6
0 -8 -10 -5 -29 8 -15 11 -40 25 -53 30 -20 8 -25 15 -21 35 6 31 30 55 28 28
0 -9 -4 -23 -8 -30 -6 -8 -3 -10 10 -5 10 4 21 12 26 19 4 7 14 11 22 8 8 -4
15 -1 15 4 0 6 -10 12 -22 14 -21 3 -21 4 5 9 25 6 27 4 28 -25 1 -17 1 -36 0
-42 -2 -21 29 -24 57 -6 25 16 26 16 19 -1 -4 -12 -1 -17 11 -17 30 0 42 21
42 72 l0 48 60 0 c33 0 60 4 60 10 0 5 7 7 15 4 9 -4 15 0 15 10 0 10 6 13 15
10 10 -4 15 0 16 12 1 14 3 12 9 -6 7 -24 8 -24 15 -5 5 11 17 26 27 33 10 7
18 18 18 24 0 7 -6 6 -15 -2 -13 -10 -15 -9 -15 10 0 15 5 20 14 17 8 -3 17
-3 21 1 4 4 21 8 38 9 18 0 40 2 51 2 12 1 16 6 12 16 -3 8 -2 15 3 15 5 0 13
21 18 47 l8 48 53 -3 52 -2 0 32 c0 67 7 76 62 80 58 4 63 1 73 -32 11 -36 45
-56 45 -26 0 10 7 12 22 8 14 -3 19 -1 14 6 -3 6 2 13 11 15 17 4 17 5 1 6
-10 0 -18 5 -18 10 0 5 8 12 18 14 9 3 -9 5 -40 6 -50 1 -58 4 -58 20 0 14 10
21 36 25 29 6 34 10 29 27 -5 15 -2 19 19 19 16 0 26 -6 26 -15 0 -8 5 -26 12
-40 10 -22 17 -25 65 -25 l53 0 0 50 c0 49 1 50 26 44 18 -5 29 -1 39 12 8 11
15 14 15 7 0 -6 10 -13 22 -15 14 -2 25 -13 29 -28 5 -14 6 2 4 37 -4 54 -2
64 15 73 20 11 59 1 59 -15 0 -5 10 -12 22 -13 12 -2 24 -12 26 -23 6 -22 7
-22 31 -10 9 6 30 12 45 16 20 4 31 15 39 35 7 22 16 30 33 30 13 0 27 5 30
10 4 6 12 7 18 3 7 -4 22 -8 35 -8 22 -1 23 1 26 57 1 19 16 37 16 20 0 -7 7
-12 15 -12 8 0 15 4 15 10 0 5 9 14 20 20 16 9 19 8 13 -7 -5 -13 -3 -15 11
-10 10 4 27 0 39 -8 12 -8 32 -15 45 -15 13 0 33 -5 44 -11 19 -10 20 -9 15
11 -11 43 9 62 63 59 56 -3 62 0 66 37 6 52 11 58 39 40 27 -18 36 -20 34 -8
-3 20 2 32 16 32 8 0 15 -7 15 -15 0 -18 34 -37 53 -29 11 4 16 -2 19 -18 3
-21 4 -21 20 11 17 32 18 156 18 1997 0 1080 -2 1964 -5 1964 -10 0 -89 -42
-162 -86 -40 -24 -75 -44 -78 -44 -2 0 -29 -16 -59 -35 -30 -19 -58 -35 -61
-35 -6 0 -213 -122 -256 -151 -14 -9 -52 -31 -85 -48 -32 -17 -68 -37 -78 -44
-11 -6 -44 -27 -73 -45 -29 -18 -75 -52 -102 -76 l-49 -44 100 -32 c55 -17 98
-33 96 -35 -2 -2 -55 10 -118 26 -63 17 -179 40 -258 53 -79 13 -145 26 -148
28 -2 3 -11 54 -19 114 -8 60 -17 127 -20 148 -5 33 -3 37 8 27 19 -15 97 16
414 165 39 19 74 34 77 34 3 0 88 41 188 91 101 50 203 99 228 109 48 19 202
91 362 168 l98 47 0 57 0 58 -62 -24 c-109 -41 -222 -86 -243 -96 -11 -5 -51
-21 -90 -36 -38 -14 -83 -32 -100 -39 -16 -8 -59 -26 -95 -41 -36 -14 -83 -35
-105 -45 -123 -57 -486 -201 -587 -234 -46 -14 -91 -31 -102 -36 -17 -10 -18
-7 -14 45 5 66 10 71 120 118 101 43 208 115 231 154 16 29 16 33 2 47 -14 14
-20 14 -55 2 -94 -33 -266 -176 -293 -243 -8 -20 -18 -60 -22 -89 l-7 -51 -66
-17 c-37 -8 -94 -17 -127 -18 l-60 -2 -3 34 c-5 46 49 126 154 226 73 71 189
154 198 144 2 -2 7 -14 10 -26 5 -16 -8 -44 -56 -115 -79 -116 -86 -128 -62
-105 10 10 39 48 64 85 25 37 72 88 105 115 74 59 331 235 440 300 77 47 125
82 79 59 -27 -14 -166 -100 -224 -139 -81 -55 -164 -98 -154 -81 21 37 210
187 306 242 42 25 180 76 203 75 6 0 -3 -11 -20 -24 l-30 -25 31 11 c45 18
100 3 142 -37 l37 -34 -30 -26 c-16 -14 -64 -49 -105 -77 l-75 -52 41 -3 c27
-2 87 12 182 43 79 25 147 45 153 45 5 0 73 23 150 52 l139 52 0 116 0 117
-202 63 c-720 224 -1278 335 -1798 357 l-175 8 126 6 c152 9 254 23 340 49 35
11 92 20 126 20 119 0 730 -116 1108 -211 168 -42 428 -113 458 -124 13 -6 17
-2 17 18 0 21 -7 28 -47 40 -400 127 -1146 281 -1538 317 -66 6 -190 24 -275
40 -469 88 -589 101 -930 105 -157 1 -303 1 -325 -1z m680 -34 c94 -14 110
-19 96 -33 -6 -6 -159 -13 -428 -18 -402 -8 -895 -31 -939 -44 -12 -4 -24 -3
-27 3 -12 18 269 72 483 92 63 5 133 12 155 14 78 8 591 -3 660 -14z m-945
-120 c38 -10 45 -10 -165 10 l-90 9 110 -5 c61 -3 126 -9 145 -14z m97 -16
c-3 -3 -12 -4 -19 -1 -8 3 -5 6 6 6 11 1 17 -2 13 -5z m-577 -44 c266 -20 503
-70 747 -157 71 -25 155 -50 188 -55 361 -57 486 -73 740 -98 61 -6 123 -13
139 -16 21 -5 26 -3 21 6 -5 9 -1 10 15 5 12 -4 55 -7 96 -7 41 0 72 -3 69 -7
-2 -5 6 -6 18 -4 12 3 110 -7 217 -21 107 -14 322 -41 478 -60 296 -36 351
-50 380 -97 19 -30 6 -38 -74 -50 -86 -12 -589 13 -906 45 -30 3 -36 1 -32
-13 4 -10 1 -8 -7 4 -20 34 -61 75 -119 119 -64 49 -102 71 -50 30 63 -51 131
-118 142 -139 10 -17 9 -18 -3 -8 -33 27 -305 41 -934 48 -462 5 -600 9 -690
20 -16 2 -102 11 -190 20 -88 9 -186 23 -218 31 -32 8 -62 12 -68 9 -5 -4 -9
-2 -9 3 0 5 -14 6 -31 4 -24 -4 -30 -2 -24 8 6 10 2 12 -15 7 -50 -13 -1 13
70 37 94 32 38 24 -96 -15 -216 -62 -492 -187 -668 -303 -53 -35 -96 -60 -96
-55 0 18 193 135 348 211 89 44 162 82 162 84 0 2 -24 1 -53 -2 -35 -4 -62 -2
-76 6 -16 8 -90 12 -231 13 -118 1 -206 5 -203 10 3 5 -4 4 -16 -2 -12 -7 -26
-9 -31 -6 -6 3 -10 1 -10 -4 0 -6 -5 -11 -11 -11 -5 0 -8 4 -5 9 3 5 -12 4
-34 -1 -22 -6 -37 -14 -34 -19 3 -5 -3 -6 -12 -2 -13 5 -15 3 -9 -7 5 -8 4
-11 -3 -6 -6 4 -35 -5 -64 -20 -29 -14 -48 -21 -43 -16 16 17 263 137 360 174
112 44 252 90 370 122 50 14 83 25 75 25 -23 1 -191 -45 -330 -90 -222 -73
-452 -181 -606 -284 -54 -36 -65 -41 -61 -25 3 11 1 18 -3 15 -4 -3 -39 5 -77
17 -37 12 -72 22 -78 24 -37 8 -167 78 -202 109 -69 59 -63 73 65 138 201 103
341 146 617 191 353 57 791 79 1105 56z m1108 -17 c-10 -2 -28 -2 -40 0 -13 2
-5 4 17 4 22 1 32 -1 23 -4z m482 -33 c113 -11 266 -24 340 -30 213 -17 480
-57 665 -99 94 -22 215 -49 270 -61 155 -32 253 -61 266 -76 17 -21 -9 -18
-105 11 -109 33 -427 107 -596 139 -299 56 -557 86 -780 91 -111 2 -211 12
-455 44 -121 16 164 2 395 -19z m-177 -27 c-7 -2 -19 -2 -25 0 -7 3 -2 5 12 5
14 0 19 -2 13 -5z m44 -9 c-3 -3 -12 -4 -19 -1 -8 3 -5 6 6 6 11 1 17 -2 13
-5z m-4652 -114 c3 -5 1 -10 -6 -10 -7 0 -20 -6 -28 -14 -9 -8 -41 -27 -71
-42 -43 -23 -69 -29 -120 -30 -36 -1 -72 -3 -80 -5 -8 -2 -15 2 -15 10 0 24
67 70 125 85 63 17 186 21 195 6z m1342 -112 c-3 -8 -6 -5 -6 6 -1 11 2 17 5
13 3 -3 4 -12 1 -19z m72 -120 c25 -22 101 -67 169 -99 67 -33 122 -65 122
-71 0 -11 -40 -8 -118 8 -27 6 -31 4 -26 -10 4 -10 0 -18 -12 -23 -9 -3 -47
-26 -83 -50 -36 -23 -71 -43 -77 -43 -6 0 -16 -10 -23 -23 -7 -13 -28 -32 -47
-42 -19 -10 -53 -36 -76 -57 -23 -21 -43 -38 -44 -38 -8 0 -157 -104 -181
-126 -15 -14 -42 -32 -61 -41 -18 -9 -43 -29 -55 -45 -11 -15 -27 -28 -34 -28
-7 0 -27 -13 -45 -30 -17 -16 -34 -30 -37 -30 -3 0 -18 -11 -31 -23 -14 -13
-50 -41 -80 -62 -56 -39 -96 -70 -174 -137 -24 -21 -48 -38 -53 -38 -5 0 -19
-10 -30 -22 -11 -13 -37 -36 -58 -53 -21 -16 -47 -40 -59 -52 -12 -11 -52 -45
-91 -74 -38 -28 -70 -57 -70 -63 0 -15 -45 -56 -61 -56 -8 0 -14 -7 -14 -15 0
-9 -9 -15 -25 -15 -17 0 -23 -4 -19 -14 4 -10 0 -13 -13 -10 -20 6 -93 -31
-93 -47 0 -12 -56 -40 -64 -32 -3 3 -15 -2 -26 -12 -14 -13 -17 -21 -9 -26 8
-4 4 -9 -10 -14 -12 -3 -18 -11 -15 -17 19 -31 -121 41 -179 92 l-40 36 334
320 c526 505 723 680 994 884 135 101 387 270 403 270 5 0 15 7 22 15 11 14
15 12 28 -15 8 -17 36 -49 61 -72z m5203 68 c191 -48 403 -117 387 -126 -18
-9 -187 -30 -257 -32 -41 0 -61 5 -85 22 l-32 23 24 -26 c23 -25 23 -27 5 -27
-12 1 -29 17 -45 43 -22 36 -38 48 -105 77 -43 18 -80 34 -81 35 -1 0 0 11 4
23 7 30 25 29 185 -12z m-6650 -172 c100 -91 111 -103 57 -63 -61 46 -179 154
-152 140 11 -6 54 -41 95 -77z m5369 -71 c13 -16 12 -17 -3 -4 -10 7 -18 15
-18 17 0 8 8 3 21 -13z m252 -236 c70 -66 132 -127 137 -137 5 -10 -28 19 -73
64 -45 45 -130 127 -188 182 -58 54 -83 79 -55 55 28 -25 108 -98 179 -164z
m-683 172 c0 -3 -48 -13 -107 -22 -60 -9 -187 -31 -283 -47 -548 -96 -667
-110 -985 -115 l-250 -3 205 8 c268 11 320 20 450 75 94 40 164 61 260 80 47
9 101 20 120 25 38 9 590 9 590 -1z m-111 -53 c-19 -19 -785 -163 -952 -179
-101 -10 -26 12 133 38 91 15 219 38 285 51 103 20 408 75 485 87 40 7 54 7
49 3z m-4442 -88 c6 -7 14 -24 17 -38 6 -23 6 -23 -5 -5 -6 11 -28 38 -48 59
-35 39 -35 39 -5 18 17 -12 35 -27 41 -34z m2841 -35 c-10 -2 -26 -2 -35 0
-10 3 -2 5 17 5 19 0 27 -2 18 -5z m-2848 -36 c0 -5 -4 -5 -10 -2 -5 3 -10 14
-10 23 0 15 2 15 10 2 5 -8 10 -19 10 -23z m3430 -19 c0 -4 -37 -7 -82 -7 -64
1 -75 3 -48 9 46 10 130 9 130 -2z m73 -35 c-7 -2 -19 -2 -25 0 -7 3 -2 5 12
5 14 0 19 -2 13 -5z m1917 -140 c0 -6 -4 -14 -8 -17 -4 -2 -8 3 -8 12 0 9 -3
31 -7 47 l-6 30 14 -30 c8 -16 14 -35 15 -42z m-1512 40 c10 -15 48 -33 70
-33 26 0 44 -23 60 -79 23 -80 25 -109 8 -145 -9 -19 -16 -46 -16 -60 0 -32
-19 -74 -47 -105 -12 -14 -32 -46 -45 -72 -12 -26 -25 -46 -29 -43 -4 2 -11
-1 -15 -7 -3 -6 -1 -15 7 -20 10 -6 7 -13 -14 -29 -15 -12 -36 -38 -46 -58
-10 -21 -28 -46 -40 -56 -12 -11 -21 -25 -21 -32 0 -6 -17 -22 -37 -34 -29
-17 -34 -23 -22 -31 12 -7 12 -9 -1 -10 -8 0 -4 -5 10 -9 17 -6 9 -7 -25 -4
-49 6 -49 6 -27 -11 35 -26 193 -15 258 17 47 24 195 108 261 150 l33 20 -18
-44 c-16 -37 -23 -43 -50 -44 -17 -1 -52 -15 -79 -32 -26 -16 -66 -39 -88 -51
-41 -22 -27 -29 21 -11 19 8 30 8 38 0 5 -5 25 -10 44 -10 45 0 94 53 122 129
11 31 24 63 29 71 12 22 51 40 87 40 21 0 53 16 100 50 170 123 251 190 302
253 61 73 81 89 37 30 -51 -69 -109 -125 -235 -226 -69 -55 -126 -103 -128
-107 -1 -4 11 -5 27 -2 73 10 357 -102 430 -170 42 -40 39 -53 -5 -23 -20 14
-40 25 -44 25 -4 0 -59 24 -121 54 -137 65 -198 84 -295 92 -109 10 -118 5
-160 -78 -20 -39 -48 -89 -62 -110 l-25 -39 -111 0 c-202 0 -439 -16 -481 -31
-22 -8 -44 -24 -50 -36 -13 -28 -45 -41 -118 -48 -34 -2 -87 -8 -117 -13 -48
-7 -50 -9 -20 -11 34 -3 33 -3 -10 -9 -25 -4 -46 -6 -47 -6 -1 1 20 86 47 191
64 243 115 451 156 639 18 83 33 142 33 133 1 -25 17 -31 43 -16 13 7 25 13
28 13 3 0 15 6 26 13 12 6 34 11 50 11 47 -1 124 13 119 21 -3 5 1 11 7 14 22
9 189 0 196 -11z m-520 -104 c-19 -142 -141 -651 -200 -839 l-24 -75 -82 -19
c-45 -11 -84 -18 -87 -15 -4 4 18 82 43 149 3 8 7 24 9 34 2 11 25 97 52 190
27 94 59 213 71 264 14 57 27 92 35 92 8 0 16 14 20 30 4 17 10 28 15 25 5 -3
11 4 15 15 4 11 10 18 14 16 10 -6 42 37 66 87 12 26 20 34 26 26 4 -7 10 6
14 34 4 26 11 47 14 47 4 0 4 -27 -1 -61z m-3698 37 c0 -2 -8 -10 -17 -17 -16
-13 -17 -12 -4 4 13 16 21 21 21 13z m-45 -46 c-3 -5 -12 -10 -18 -10 -7 0 -6
4 3 10 19 12 23 12 15 0z m-80 -70 c-10 -11 -21 -18 -23 -15 -3 3 3 12 14 20
27 20 30 18 9 -5z m1045 -215 c-24 -25 -46 -45 -49 -45 -3 0 15 20 39 45 24
25 46 45 49 45 3 0 -15 -20 -39 -45z m2507 -57 c-3 -8 -6 -5 -6 6 -1 11 2 17
5 13 3 -3 4 -12 1 -19z m-2567 9 c0 -1 -26 -27 -57 -57 l-58 -55 55 58 c50 53
60 62 60 54z m0 -50 c0 -1 -30 -32 -67 -67 l-68 -65 65 68 c60 62 70 72 70 64z
m-1412 -196 c7 -19 10 -36 8 -38 -7 -8 -36 92 -41 142 -4 50 -4 50 9 -10 7
-33 18 -75 24 -94z m1292 135 c0 -2 -8 -10 -17 -17 -16 -13 -17 -12 -4 4 13
16 21 21 21 13z m2625 -143 c-40 -150 -103 -354 -114 -365 -7 -7 -144 -38
-149 -33 -2 2 14 9 35 15 49 16 63 28 63 54 0 27 36 105 59 131 10 11 24 37
31 58 6 20 15 35 19 32 5 -2 16 26 26 63 9 37 24 90 33 117 8 28 17 56 19 64
2 8 6 11 9 8 3 -3 -11 -67 -31 -144z m2284 -16 c7 -54 11 -101 8 -103 -2 -3
-76 4 -163 15 -88 11 -189 23 -226 27 -37 3 -75 12 -84 18 -13 10 -10 12 19 8
36 -4 145 37 308 118 42 21 79 36 82 34 2 -3 10 3 18 12 12 15 14 14 20 -7 3
-13 11 -68 18 -122z m-4949 120 c0 -2 -15 -16 -32 -33 l-33 -29 29 33 c28 30
36 37 36 29z m3800 -51 c0 -2 -7 -7 -16 -10 -8 -3 -12 -2 -9 4 6 10 25 14 25
6z m-65 -36 c-3 -5 -12 -10 -18 -10 -7 0 -6 4 3 10 19 12 23 12 15 0z m-3993
-187 c-77 -82 -162 -168 -188 -193 -26 -25 35 42 136 148 100 105 185 192 188
192 2 0 -59 -66 -136 -147z m178 134 c0 -1 -39 -41 -87 -87 l-88 -85 75 80
c81 86 100 103 100 92z m3700 -12 c0 -2 -13 -11 -30 -20 -38 -19 -40 -11 -2 9
31 17 32 18 32 11z m-90 -50 c0 -2 -10 -9 -22 -15 -22 -11 -22 -10 -4 4 21 17
26 19 26 11z m945 -25 c27 -5 -61 -20 -155 -27 -74 -5 -96 -9 -75 -14 31 -7
-99 -3 -212 7 -108 9 -69 29 72 37 52 3 353 1 370 -3z m-1226 -96 c2 -2 -17
-4 -43 -4 -27 0 -45 4 -41 9 5 9 73 4 84 -5z m329 -18 c-10 -7 -18 -18 -18
-24 0 -6 -14 -21 -30 -34 -17 -13 -42 -33 -57 -45 -14 -13 -30 -23 -35 -23 -9
0 -62 -35 -85 -57 -7 -6 -53 -32 -102 -56 l-89 -45 -64 20 c-69 21 -117 20
-169 -6 -44 -22 -46 -20 -10 9 16 14 94 57 173 95 79 38 189 94 246 125 99 53
105 55 180 55 66 -1 75 -3 60 -14z m988 -30 c23 -20 35 -38 32 -47 -13 -33
-388 -260 -753 -456 -375 -201 -438 -234 -565 -294 -74 -35 -217 -105 -318
-156 -100 -51 -183 -93 -185 -92 -1 0 -10 -3 -21 -7 -16 -6 -18 -16 -13 -103
7 -110 3 -104 -14 23 -10 79 -13 88 -25 71 -20 -27 -72 -24 -96 5 -14 18 -18
36 -16 74 5 81 -18 74 -142 -38 -58 -52 -116 -101 -130 -108 -14 -7 -27 -16
-30 -20 -3 -4 -41 3 -85 15 -118 32 -320 31 -425 -2 -213 -67 -468 -232 -634
-411 -45 -48 -48 -54 -30 -61 16 -7 15 -8 -7 -8 -31 -1 -56 -27 -147 -152 -44
-62 -71 -89 -97 -99 -19 -8 -35 -17 -35 -22 0 -4 -5 -8 -12 -8 -6 0 -48 -22
-93 -49 -164 -98 -344 -191 -525 -270 -102 -45 -194 -86 -205 -91 -61 -29
-340 -113 -446 -134 -610 -123 -1359 -97 -2019 69 -247 62 -626 188 -836 278
-87 38 -224 106 -224 113 0 5 144 -52 190 -75 39 -20 197 -79 210 -78 8 0 28
16 45 36 42 52 272 256 437 388 835 669 1416 927 2418 1072 379 55 1390 166
1450 159 25 -3 -106 -18 -550 -63 -1234 -126 -1764 -243 -2288 -504 -276 -137
-422 -231 -802 -510 -161 -119 -485 -393 -582 -494 -46 -47 -59 -65 -38 -52 5
3 19 1 29 -5 22 -11 27 -12 164 -32 49 -7 85 -16 82 -20 -9 -9 45 -22 150 -35
28 -3 52 -9 55 -12 11 -13 62 -31 90 -31 39 0 140 -38 147 -55 2 -8 26 -17 51
-21 26 -4 75 -20 110 -35 34 -16 71 -29 81 -29 36 0 91 -29 85 -45 -4 -8 -2
-15 4 -15 6 0 18 -3 28 -7 12 -4 15 -3 10 5 -8 14 5 16 19 4 33 -30 282 -55
535 -54 222 0 369 12 430 36 33 13 126 35 162 39 9 1 15 4 13 8 -4 5 80 19
138 22 9 1 17 5 17 9 0 4 18 8 40 8 22 0 40 5 40 10 0 6 16 18 35 27 19 9 32
20 29 25 -3 5 0 9 7 7 30 -4 56 2 75 16 18 13 18 14 -6 9 -14 -3 -32 -8 -40
-11 -19 -7 -29 -8 -160 -22 -170 -17 -197 -10 -41 10 173 23 344 60 460 101
250 87 543 270 816 508 l95 83 68 0 67 0 -65 6 -65 6 33 25 c19 14 44 24 57
22 44 -6 300 75 316 100 3 6 9 9 13 8 14 -3 66 12 66 20 0 4 11 7 25 6 13 -2
23 2 22 7 -1 6 7 13 17 15 11 2 45 23 75 46 129 95 320 194 467 241 46 15 86
31 89 36 3 4 25 18 48 29 23 11 56 28 72 38 67 41 161 91 392 208 l242 122 6
-29 c4 -16 15 -80 25 -142 10 -61 18 -101 19 -87 1 26 -14 166 -25 229 -5 32
-4 33 12 17 12 -12 20 -14 27 -7 6 6 21 11 34 11 12 0 40 7 60 15 21 8 48 16
60 18 12 2 26 6 29 10 4 4 15 7 25 7 10 0 24 6 31 14 8 7 27 12 43 10 17 -2
57 -6 90 -9 53 -6 64 -4 95 17 19 13 45 41 57 63 22 40 40 51 198 121 145 65
198 90 323 150 72 35 137 64 143 64 5 0 47 18 92 39 132 63 196 88 295 115 51
14 119 39 150 54 31 16 65 27 74 24 9 -2 34 -19 54 -36z m-4836 31 c0 -2 -10
-12 -22 -23 l-23 -19 19 23 c18 21 26 27 26 19z m3488 -53 c-45 -24 -235 -91
-348 -122 -136 -38 -300 -75 -306 -69 -2 2 -2 11 2 20 4 11 48 26 137 47 132
31 209 53 387 109 52 16 109 30 125 30 l30 0 -27 -15z m-685 -183 c-4 -14 -20
-23 -57 -31 -85 -19 -383 -67 -514 -84 -129 -17 -218 -20 -122 -5 199 32 528
95 595 114 99 29 104 30 98 6z m3097 -88 c-71 -183 -207 -380 -385 -559 -127
-127 -199 -194 -210 -194 -17 0 2 23 53 62 72 58 217 205 278 283 111 142 239
361 274 470 7 22 15 35 17 28 2 -6 -10 -46 -27 -90z m-3872 -50 c-16 -2 -40
-2 -55 0 -16 2 -3 4 27 4 30 0 43 -2 28 -4z m879 -59 c51 15 154 38 156 35 2
-2 13 -17 25 -33 12 -15 19 -32 16 -37 -9 -15 -96 -56 -134 -64 -19 -4 -40
-12 -47 -17 -11 -9 -32 46 -48 127 -5 27 -4 28 5 7 7 -16 16 -22 27 -18z m-38
-36 c5 -18 13 -49 16 -69 l7 -36 -89 -30 c-48 -17 -158 -56 -244 -87 -172 -61
-381 -120 -571 -161 -389 -83 -775 -210 -1063 -349 -177 -86 -200 -94 -280
-101 -125 -12 -367 -67 -353 -80 2 -2 26 3 53 11 90 27 275 54 363 53 75 -1
81 -2 42 -9 -25 -4 -80 -11 -123 -15 -42 -3 -75 -10 -72 -15 3 -4 -16 -10 -43
-13 -26 -2 -83 -14 -127 -27 -44 -12 -95 -24 -112 -27 -18 -3 -31 -9 -28 -13
3 -4 -1 -8 -8 -7 -36 1 -58 -4 -52 -12 3 -6 -3 -9 -14 -8 -16 1 -18 4 -8 15 6
8 -11 3 -38 -10 -88 -45 -310 -153 -320 -156 -5 -2 4 8 20 23 l30 27 -36 -25
c-44 -31 -146 -88 -299 -166 -112 -57 -335 -213 -375 -262 -18 -22 -18 -22 10
2 17 15 70 53 119 85 49 33 119 79 155 103 83 56 128 81 144 81 7 0 -34 -28
-90 -63 -120 -73 -263 -168 -315 -209 -21 -16 -38 -27 -38 -23 0 4 -35 -24
-77 -61 -95 -83 -53 -35 112 130 118 117 108 116 -25 -2 -45 -41 -84 -72 -86
-70 -13 14 53 151 86 178 3 3 17 21 30 40 13 19 55 73 94 120 39 47 81 99 92
116 l22 30 -237 12 c-422 21 -721 76 -894 164 -22 11 -37 22 -34 24 3 3 32 -8
64 -24 163 -83 506 -139 898 -149 219 -5 237 -4 380 22 82 14 152 28 156 31 4
2 27 7 51 10 l43 6 -105 -75 c-144 -102 -184 -147 -70 -77 47 29 106 67 132
86 45 32 248 139 248 130 0 -2 -34 -23 -75 -45 -41 -23 -123 -74 -183 -114
-59 -39 -151 -98 -203 -130 -51 -32 -105 -67 -119 -78 -24 -19 -23 -19 15 1
22 11 58 31 80 45 22 13 46 22 52 20 7 -2 12 1 10 8 -1 7 6 12 16 12 10 0 21
6 26 13 4 7 17 14 30 17 12 2 47 20 79 39 31 19 104 58 162 87 58 29 195 100
305 159 606 322 877 426 1555 594 382 95 603 161 920 275 91 33 168 60 172 61
3 0 11 -15 17 -32z m-1286 -35 c-13 -2 -33 -2 -45 0 -13 2 -3 4 22 4 25 0 35
-2 23 -4z m-598 -152 c19 -8 18 -11 -16 -42 -20 -19 -62 -47 -95 -64 -32 -16
-72 -39 -89 -51 -16 -12 -75 -49 -130 -81 -55 -33 -140 -87 -190 -120 -49 -33
-112 -73 -140 -89 -27 -15 -70 -43 -95 -60 -25 -18 -71 -46 -104 -63 -58 -32
-59 -32 -77 -12 -13 14 -15 21 -6 24 7 3 4 6 -5 6 -10 1 -18 4 -18 9 0 4 -13
13 -29 20 -17 7 -31 19 -33 26 -2 8 -38 43 -81 80 -43 36 -74 66 -69 66 5 0
19 -11 32 -25 13 -14 28 -25 33 -25 5 0 27 -16 50 -35 22 -19 46 -35 53 -35 8
0 11 -6 8 -14 -6 -15 11 -27 61 -46 38 -14 22 6 -23 30 -28 14 -32 19 -17 20
14 1 16 3 5 7 -8 3 -19 10 -25 15 -5 5 -25 18 -43 29 -18 11 -30 24 -27 29 3
6 0 10 -8 10 -7 0 -22 8 -33 18 -10 10 -30 25 -44 35 -13 9 -19 17 -13 17 6 0
25 -11 41 -24 30 -26 112 -59 112 -46 0 5 -15 14 -34 20 -19 6 -40 18 -46 26
-17 20 -8 18 50 -10 27 -13 52 -21 55 -17 4 8 -107 62 -122 60 -21 -3 -33 2
-33 15 0 13 4 13 27 1 38 -20 50 -6 14 16 -44 27 -38 32 8 7 23 -12 37 -26 34
-33 -3 -8 8 -16 29 -20 18 -4 47 -14 63 -23 27 -14 29 -14 17 0 -7 9 -27 22
-45 29 -18 7 -41 22 -52 33 -11 12 -31 29 -45 39 -21 15 -22 16 -2 7 12 -6 22
-8 22 -4 0 4 8 0 18 -9 29 -27 34 -7 7 25 -14 16 -25 37 -24 46 0 15 1 15 7 1
12 -26 57 -76 83 -89 18 -10 13 -1 -18 33 -24 26 -43 52 -43 59 1 7 16 -5 35
-26 19 -22 35 -34 35 -28 0 6 -11 23 -25 38 -30 33 -24 46 8 17 28 -26 67 -46
75 -39 3 3 0 6 -6 6 -14 0 -72 59 -72 73 1 7 5 6 13 -3 15 -20 72 -60 84 -60
4 1 -4 11 -18 23 -14 12 -36 38 -48 57 -15 23 -16 28 -4 15 25 -27 74 -65 85
-65 4 0 -6 13 -24 29 -33 29 -34 57 -2 30 15 -12 16 -12 10 8 -5 16 -2 23 11
27 24 7 221 33 363 47 63 6 169 17 235 24 141 14 262 17 290 6z m3905 -97
c-30 -31 -109 -101 -175 -157 -66 -55 -135 -115 -154 -134 -19 -18 -42 -35
-52 -38 -11 -4 -19 -10 -19 -14 0 -4 -30 -29 -67 -56 -38 -27 -73 -54 -79 -60
-6 -6 -37 -28 -70 -50 -32 -22 -60 -43 -62 -47 -2 -5 -9 -8 -15 -8 -7 0 -28
-15 -49 -33 -51 -45 -131 -102 -141 -99 -5 1 -6 -2 -2 -7 3 -6 -12 -19 -34
-30 -21 -11 -45 -26 -52 -34 -8 -7 -66 -52 -129 -100 -179 -134 -247 -192
-352 -295 -54 -53 -100 -93 -104 -90 -8 9 129 151 221 228 43 36 108 92 144
124 36 32 159 130 272 217 113 87 225 177 250 201 24 24 37 34 29 24 -15 -19
-14 -19 13 -2 27 18 39 34 15 20 -10 -5 -10 -4 -1 6 7 8 19 15 27 16 8 1 43
24 77 51 33 26 71 55 83 63 11 8 48 37 80 63 33 27 71 54 85 60 14 6 38 20 52
32 14 11 43 34 64 50 21 17 72 58 112 93 41 34 77 62 81 62 3 0 -18 -25 -48
-56z m-3730 -37 c-110 -49 -159 -71 -180 -79 -82 -31 -290 -129 -529 -250
-151 -76 -276 -137 -277 -135 -5 5 134 87 147 87 5 0 7 5 4 11 -4 6 -1 9 7 7
7 -1 27 7 44 19 17 12 37 23 45 25 8 2 16 5 19 8 14 14 170 90 185 90 9 0 13
5 10 10 -5 9 8 12 31 9 4 0 10 4 13 9 7 11 94 52 111 52 6 0 37 13 70 30 35
18 66 27 76 23 11 -4 15 -2 11 4 -4 7 7 13 28 17 19 4 61 20 92 35 70 34 84
39 103 40 8 0 4 -5 -10 -12z m-30 -57 c-14 -11 -29 -20 -34 -20 -5 0 -50 -20
-100 -44 -50 -24 -102 -47 -115 -51 -23 -7 -202 -92 -251 -119 -43 -24 -102
-47 -107 -42 -6 6 234 125 366 181 52 22 130 57 175 77 94 43 100 44 66 18z
m-1235 -17 l18 -28 -21 19 c-12 11 -22 23 -22 28 0 14 7 9 25 -19z m-35 -23
c0 -5 -2 -10 -4 -10 -3 0 -8 5 -11 10 -3 6 -1 10 4 10 6 0 11 -4 11 -10z
m1260 -10 c-8 -5 -19 -10 -25 -10 -5 0 -3 5 5 10 8 5 20 10 25 10 6 0 3 -5 -5
-10z m-1300 -10 c8 -5 11 -10 5 -10 -5 0 -17 5 -25 10 -8 5 -10 10 -5 10 6 0
17 -5 25 -10z m1240 -15 c-42 -24 -180 -78 -186 -73 -2 3 10 11 28 18 35 13
97 39 138 57 36 16 50 15 20 -2z m-230 -90 c-14 -8 -29 -14 -35 -14 -5 0 1 6
15 14 14 8 30 14 35 14 6 0 -1 -6 -15 -14z m-1025 -33 c-3 -3 -11 0 -18 7 -9
10 -8 11 6 5 10 -3 15 -9 12 -12z m4585 -16 c0 -3 -56 -48 -230 -185 -25 -19
-38 -27 -30 -18 14 15 252 207 258 207 1 0 2 -2 2 -4z m-4500 -51 c0 -2 -13 1
-30 6 -16 6 -30 15 -30 20 0 5 14 3 30 -6 17 -9 30 -17 30 -20z m-110 15 c0
-5 -2 -10 -4 -10 -3 0 -8 5 -11 10 -3 6 -1 10 4 10 6 0 11 -4 11 -10z m5496
-9 c-3 -5 -36 -27 -73 -49 -331 -196 -320 -191 -973 -485 -366 -164 -439 -200
-433 -210 3 -6 1 -7 -5 -3 -6 4 -108 -36 -227 -89 -118 -53 -221 -95 -227 -93
-7 3 31 28 83 56 52 28 105 58 119 66 14 9 43 24 65 34 74 35 200 105 203 114
2 4 8 8 14 8 6 0 39 18 72 39 34 21 98 58 142 81 66 36 261 148 314 181 8 5
35 19 60 32 47 25 169 90 280 150 99 53 178 83 190 71 13 -13 -13 -90 -40
-119 -11 -12 -47 -34 -80 -50 -71 -34 -74 -45 -4 -14 50 22 411 224 474 265
37 24 55 30 46 15z m-5421 -41 c10 -11 16 -20 13 -20 -3 0 -13 9 -23 20 -10
11 -16 20 -13 20 3 0 13 -9 23 -20z m651 11 c-7 -10 -81 -46 -116 -55 -14 -4
4 9 40 28 67 36 85 43 76 27z m-572 -20 c11 -11 35 -32 51 -46 l30 -27 -35 23
c-53 35 -93 69 -80 69 7 0 22 -9 34 -19z m1 -51 c10 -11 16 -20 13 -20 -3 0
-13 9 -23 20 -10 11 -16 20 -13 20 3 0 13 -9 23 -20z m99 -56 c3 -8 2 -12 -4
-9 -6 3 -10 10 -10 16 0 14 7 11 14 -7z m5016 -8 c0 -9 -172 -98 -370 -191
-259 -122 -741 -337 -746 -332 -4 4 77 43 311 147 83 37 191 87 240 110 50 23
149 68 220 99 72 32 177 83 235 114 110 60 110 59 110 53z m-2885 -26 c-94 -9
-249 -55 -308 -91 -26 -16 -49 -29 -52 -29 -2 0 -25 -13 -51 -30 -26 -16 -51
-27 -57 -23 -6 3 -7 1 -3 -5 8 -14 -39 -46 -54 -37 -6 4 -21 -1 -33 -12 l-22
-18 19 23 c13 14 26 20 38 16 14 -4 16 -1 11 13 -6 16 -5 17 12 3 17 -14 18
-13 13 2 -4 10 1 23 14 35 12 10 18 12 14 5 -7 -11 -4 -11 15 0 13 7 34 22 47
32 12 11 22 15 22 10 0 -5 6 -2 13 6 7 8 23 20 37 26 70 32 87 38 110 40 14 2
34 8 45 13 47 23 85 29 160 29 l80 -1 -70 -7z m4105 0 c8 -5 11 -10 5 -10 -5
0 -17 5 -25 10 -8 5 -10 10 -5 10 6 0 17 -5 25 -10z m-2200 -13 c0 -2 -12 -14
-27 -28 l-28 -24 24 28 c23 25 31 32 31 24z m2334 -26 c-2 -3 -12 3 -22 13
-16 17 -16 18 5 5 12 -7 20 -15 17 -18z m-6244 15 c0 -7 -133 -76 -137 -72 -3
2 125 75 135 76 1 0 2 -2 2 -4z m5430 -100 c-102 -40 -241 -95 -310 -121 -69
-26 -130 -49 -135 -51 -6 -3 -11 4 -11 15 0 11 4 17 9 14 4 -3 20 0 35 6 15 5
119 44 232 85 113 41 234 86 270 100 36 14 72 25 80 25 8 0 -68 -33 -170 -73z
m725 56 c-3 -3 -11 0 -18 7 -9 10 -8 11 6 5 10 -3 15 -9 12 -12z m40 0 c-3 -3
-11 0 -18 7 -9 10 -8 11 6 5 10 -3 15 -9 12 -12z m-2427 -69 c-92 -74 -117
-92 -105 -78 17 20 172 144 180 144 5 1 -29 -29 -75 -66z m2022 58 c-8 -5 -26
-11 -40 -15 -21 -5 -20 -3 5 9 32 15 60 20 35 6z m-5274 -10 c-3 -4 -19 -11
-36 -15 -17 -3 -45 -16 -63 -29 -45 -34 -322 -177 -341 -177 -34 0 -14 -20 22
-21 20 -1 5 -5 -37 -9 -80 -9 -98 -19 -84 -45 7 -11 6 -25 -1 -41 -11 -22 -11
-22 -22 14 -8 26 -12 30 -13 15 -1 -12 -6 -25 -12 -28 -6 -4 -9 0 -7 11 4 25
-40 31 -67 9 -20 -16 -20 -16 4 -11 13 2 29 -1 36 -8 11 -11 4 -12 -36 -8 -47
4 -116 -16 -244 -73 -16 -7 -54 -23 -83 -34 -51 -20 -197 -95 -217 -111 -5 -4
-48 -27 -95 -50 -102 -52 -226 -137 -269 -185 -41 -47 -40 -31 2 26 59 83 212
204 398 317 201 122 535 294 723 373 70 29 224 74 281 82 59 8 166 7 161 -2z
m1644 -13 c42 -11 120 -44 120 -52 0 -2 -27 7 -59 20 -75 30 -187 40 -265 24
-85 -17 -156 -40 -155 -48 3 -20 -3 -30 -21 -35 -10 -3 -20 -1 -22 5 -9 26
-163 -84 -273 -196 -152 -153 -279 -361 -340 -559 -15 -49 -29 -87 -31 -84 -2
2 5 32 15 68 90 310 291 593 530 748 171 110 344 148 501 109z m3559 -2 c-2
-2 -62 -26 -134 -54 -275 -108 -1031 -369 -1041 -360 -2 2 22 12 54 23 31 10
104 35 162 56 58 20 173 61 255 89 273 95 485 171 588 210 93 36 127 46 116
36z m-3875 -77 c11 -55 5 -66 -10 -19 -16 54 -16 50 -5 50 5 0 11 -14 15 -31z
m-57 -61 c-3 -7 -5 -2 -5 12 0 14 2 19 5 13 2 -7 2 -19 0 -25z m-936 -26 c-31
-44 -174 -175 -276 -255 -239 -185 -500 -334 -708 -402 -107 -35 -349 -85
-409 -85 l-31 0 22 24 c14 15 52 32 104 46 169 47 381 123 393 141 3 5 16 9
30 9 14 0 23 4 20 8 -3 5 21 21 54 35 33 15 89 45 125 67 36 22 69 40 74 40 5
0 18 11 29 25 11 14 26 24 34 23 7 -2 12 3 10 10 -1 8 2 11 8 7 6 -3 23 6 39
22 44 45 181 136 208 139 14 1 43 15 64 31 22 15 47 33 56 38 9 6 30 21 46 35
16 14 35 25 43 25 8 0 19 7 24 15 5 8 12 11 16 7 4 -4 14 2 22 14 8 11 16 18
19 15 3 -3 -4 -18 -16 -34z m-181 15 c0 -2 -15 -16 -32 -33 l-33 -29 29 33
c28 30 36 37 36 29z m2920 -21 c0 -2 -8 -10 -17 -17 -16 -13 -17 -12 -4 4 13
16 21 21 21 13z m2110 -6 c-8 -5 -22 -9 -30 -9 -10 0 -8 3 5 9 27 12 43 12 25
0z m-55 -18 c-12 -10 -104 -44 -475 -175 -1043 -369 -1955 -676 -1968 -662 -3
2 1 7 9 9 8 3 169 57 359 120 190 63 491 164 670 226 179 61 336 115 350 120
40 13 577 202 785 275 272 96 285 100 270 87z m-687 -7 c-5 -6 -69 -29 -433
-160 -126 -45 -306 -110 -400 -144 -93 -34 -174 -60 -180 -58 -5 2 22 14 60
27 39 13 140 50 225 83 85 32 198 74 250 92 52 18 156 56 230 83 74 27 155 57
180 65 45 16 78 22 68 12z m-4358 -10 c0 -8 -55 -55 -65 -55 -5 0 6 14 25 30
37 31 40 33 40 25z m-417 -32 c-7 -2 -21 -2 -30 0 -10 3 -4 5 12 5 17 0 24 -2
18 -5z m60 -10 c-7 -2 -19 -2 -25 0 -7 3 -2 5 12 5 14 0 19 -2 13 -5z m247
-23 c16 -9 -65 -4 -160 11 -40 6 -28 6 45 2 55 -3 107 -9 115 -13z m-955 -10
c-3 -5 -12 -10 -18 -10 -7 0 -6 4 3 10 19 12 23 12 15 0z m2005 5 c0 -2 -10
-9 -22 -15 -22 -11 -22 -10 -4 4 21 17 26 19 26 11z m-2040 -18 c0 -2 -10 -12
-22 -23 l-23 -19 19 23 c18 21 26 27 26 19z m948 -4 c-16 -2 -40 -2 -55 0 -16
2 -3 4 27 4 30 0 43 -2 28 -4z m2002 -34 c0 -4 -20 -22 -45 -39 -24 -17 -42
-25 -39 -17 3 8 20 21 39 30 33 16 47 37 25 37 -5 0 -10 5 -10 11 0 8 5 8 15
-1 8 -7 15 -16 15 -21z m-5400 -17 c0 -39 -26 -71 -74 -93 -50 -23 -89 -24
-106 -4 -18 21 2 67 25 59 10 -4 15 -2 13 6 -2 8 14 19 37 26 55 17 85 17 85
-1 0 -9 -6 -12 -15 -9 -9 4 -18 -1 -22 -12 -4 -11 -15 -28 -25 -38 -15 -16
-18 -17 -18 -4 0 9 7 18 15 22 27 10 16 22 -21 23 -31 1 -33 0 -17 -12 14 -10
15 -13 3 -13 -40 3 -50 -3 -50 -27 0 -19 5 -25 21 -25 30 0 108 40 106 54 -1
6 3 10 10 9 17 -4 27 36 13 52 -10 12 -9 15 4 15 11 0 16 -9 16 -28z m2795 3
l30 -15 -35 6 c-19 3 -39 10 -44 15 -15 14 15 10 49 -6z m538 -9 c8 5 8 2 0
-7 -15 -16 -17 -33 -3 -24 6 3 10 4 10 2 0 -11 -81 -58 -92 -54 -9 4 -8 6 3 6
23 1 48 32 56 72 4 21 9 27 11 16 2 -10 9 -14 15 -11z m-386 -32 c-3 -3 -12
-4 -19 -1 -8 3 -5 6 6 6 11 1 17 -2 13 -5z m281 -4 c6 0 12 -7 12 -15 0 -17
-16 -20 -25 -4 -4 6 -17 15 -29 20 -19 9 -19 9 4 4 14 -2 31 -5 38 -5z m-3938
-57 c0 -7 -58 36 -66 49 -4 7 9 -1 29 -16 20 -16 37 -30 37 -33z m7415 48 c-6
-5 -21 -11 -35 -15 -21 -5 -20 -3 5 9 35 17 42 18 30 6z m-3652 -8 c-7 -2 -19
-2 -25 0 -7 3 -2 5 12 5 14 0 19 -2 13 -5z m2422 -59 c-21 -31 -65 -79 -97
-107 -71 -61 -69 -74 3 -18 54 43 68 60 113 125 14 21 26 33 26 27 0 -18 -53
-92 -92 -126 -51 -47 -115 -95 -125 -95 -5 0 -27 -15 -49 -33 -63 -54 -168
-125 -200 -137 -33 -11 -31 -10 57 50 136 93 289 235 358 332 19 27 37 46 39
43 3 -3 -12 -30 -33 -61z m-215 11 c0 -9 -176 -119 -228 -142 -84 -37 -74 -27
27 28 52 28 117 66 145 85 53 35 56 37 56 29z m94 -46 c-30 -32 -169 -135
-221 -163 -15 -9 -39 -24 -53 -33 -22 -16 -24 -16 -12 -1 7 9 65 51 128 94 63
43 129 90 146 105 44 37 49 36 12 -2z m-5894 -46 c19 -13 31 -23 26 -23 -11 0
-136 80 -136 87 0 5 51 -25 110 -64z m5710 -34 c-65 -58 -159 -128 -202 -150
-63 -32 -43 -11 45 45 45 29 107 74 137 99 68 57 81 61 20 6z m1700 11 c-8 -5
-19 -10 -25 -10 -5 0 -3 5 5 10 8 5 20 10 25 10 6 0 3 -5 -5 -10z m-3830 -4
c0 -9 -147 -96 -210 -124 -104 -47 -317 -103 -383 -101 -28 1 -27 2 13 10 229
48 319 79 475 163 111 61 105 58 105 52z m2383 -30 c-10 -13 -20 -22 -22 -20
-4 4 29 44 36 44 2 0 -4 -11 -14 -24z m1367 4 c-8 -5 -19 -10 -25 -10 -5 0 -3
5 5 10 8 5 20 10 25 10 6 0 3 -5 -5 -10z m-1344 -58 c-19 -36 -36 -49 -36 -28
0 9 5 16 10 16 6 0 16 11 22 25 6 14 13 23 15 21 3 -2 -3 -18 -11 -34z m-526
24 c0 -9 -30 -14 -35 -6 -4 6 3 10 14 10 12 0 21 -2 21 -4z m424 -27 c-17 -29
-163 -149 -204 -168 -24 -12 -24 -11 -5 3 11 9 40 31 64 49 24 17 67 53 95 79
53 49 62 56 50 37z m46 2 c0 -19 -115 -134 -173 -173 -33 -22 -92 -56 -132
-74 -40 -19 -85 -48 -99 -65 -38 -45 -34 -81 17 -158 40 -61 137 -232 125
-221 -10 9 -186 247 -213 288 -16 25 -25 50 -23 67 3 22 12 29 69 49 156 54
342 177 405 268 21 30 24 33 24 19z m-5959 -18 c13 -16 12 -17 -3 -4 -10 7
-18 15 -18 17 0 8 8 3 21 -13z m4788 -55 c1 -5 -8 -8 -19 -8 -23 0 -24 4 -8
33 11 21 11 21 19 2 4 -11 8 -23 8 -27z m639 -21 c28 -26 28 -33 -2 -41 -14
-3 -39 -18 -56 -32 -21 -18 -34 -24 -41 -17 -7 7 7 19 46 37 51 23 66 46 29
46 -8 0 -14 2 -14 4 0 2 -3 12 -7 22 -8 20 8 13 45 -19z m-2251 17 c-3 -3 -12
-4 -19 -1 -8 3 -5 6 6 6 11 1 17 -2 13 -5z m-80 -20 c-3 -3 -12 -4 -19 -1 -8
3 -5 6 6 6 11 1 17 -2 13 -5z m-2735 -115 c142 -57 426 -158 658 -236 107 -36
220 -76 251 -89 130 -54 235 -132 426 -315 80 -77 90 -90 75 -99 -13 -8 -10
-9 13 -4 17 4 27 4 24 0 -4 -4 16 -29 44 -55 l50 -48 -20 -20 c-12 -12 -37
-26 -58 -33 -20 -7 -35 -14 -32 -16 7 -7 102 28 113 42 8 10 22 1 66 -46 l56
-59 -31 -20 c-18 -12 -27 -21 -22 -21 6 0 21 7 33 16 21 15 24 14 51 -15 l29
-31 -53 -30 c-29 -16 -67 -33 -84 -36 -17 -4 -34 -10 -36 -15 -12 -19 104 22
145 51 35 25 34 25 65 -7 31 -34 31 -37 -1 -52 -15 -6 -24 -14 -21 -18 4 -3
18 2 32 11 15 10 32 15 38 13 7 -2 -7 -13 -29 -25 -23 -12 -44 -19 -47 -16 -3
3 -27 -6 -54 -21 -26 -14 -39 -23 -28 -19 79 27 118 33 136 20 18 -12 17 -14
-18 -29 -21 -8 -51 -18 -67 -22 -15 -3 -60 -24 -98 -45 -80 -46 -105 -51 -88
-20 6 11 15 18 21 15 11 -7 89 25 89 37 0 4 34 17 75 29 41 12 75 26 75 32 0
5 -8 6 -17 2 -10 -4 -42 -16 -72 -26 -30 -11 -73 -30 -96 -44 -23 -13 -45 -22
-48 -18 -4 3 -13 0 -22 -7 -9 -7 -18 -10 -22 -6 -4 3 2 13 13 21 18 14 17 15
-11 8 -27 -6 -29 -5 -16 10 8 11 9 17 3 17 -6 0 -9 7 -6 15 4 11 2 13 -9 9
-12 -4 -14 -1 -10 17 5 18 3 21 -10 16 -23 -9 -21 -2 6 24 l22 21 -23 -12
c-30 -15 -41 -6 -13 12 12 7 21 17 21 22 0 4 -7 3 -15 -4 -9 -7 -19 -9 -23 -5
-4 4 -1 10 5 12 22 8 14 21 -9 16 l-23 -5 24 21 c25 23 21 27 -10 11 -13 -8
-19 -7 -19 0 0 6 7 13 15 16 8 4 15 11 15 17 0 7 -4 7 -12 -1 -7 -7 -16 -12
-20 -12 -14 0 -8 20 12 40 24 24 14 27 -12 3 -17 -15 -18 -15 -18 0 0 9 23 30
53 48 47 28 47 31 0 12 -11 -4 -14 -3 -9 5 5 8 2 10 -9 5 -12 -4 -13 -8 -4
-13 8 -6 1 -14 -22 -25 l-34 -18 20 23 c11 13 14 20 7 16 -14 -8 -44 23 -36
36 3 5 -2 8 -10 8 -10 0 -13 6 -10 15 4 8 1 15 -5 15 -22 0 -11 21 22 40 38
23 29 27 -13 5 -26 -13 -30 -13 -30 -1 0 8 -6 16 -12 19 -8 2 -2 10 14 17 15
7 29 19 32 27 4 9 -3 7 -20 -6 -28 -22 -49 -28 -39 -11 3 6 -1 13 -11 17 -14
5 -11 11 16 35 18 15 28 28 23 28 -6 0 -20 -9 -33 -20 -25 -22 -35 -26 -25
-10 3 6 1 10 -6 10 -8 0 -8 4 1 15 10 13 9 15 -9 15 -18 0 -19 3 -10 18 6 9
25 27 42 40 18 12 27 22 21 22 -5 0 -25 -11 -44 -25 -45 -33 -53 -22 -11 15
18 17 28 30 23 30 -5 0 -17 -9 -27 -20 -10 -11 -25 -20 -33 -20 -12 0 -12 3 4
15 18 13 18 14 -6 9 -23 -5 -23 -4 10 26 l35 32 -32 -18 c-35 -19 -53 -14 -34
10 10 12 9 14 -8 9 -26 -7 -28 12 -3 27 14 8 12 9 -10 4 -21 -5 -28 -2 -28 9
0 8 6 18 13 21 6 3 2 3 -10 1 -25 -7 -42 13 -22 26 10 6 8 9 -9 9 -13 0 -20 4
-17 10 3 6 2 10 -4 10 -5 0 -21 11 -35 24 -49 44 -142 84 -406 174 -146 49
-346 120 -445 157 -175 65 -385 158 -385 169 0 4 22 -5 49 -19 27 -13 96 -43
153 -66z m2601 64 c-7 -2 -19 -2 -25 0 -7 3 -2 5 12 5 14 0 19 -2 13 -5z
m2252 -13 c3 -5 1 -10 -4 -10 -6 0 -11 5 -11 10 0 6 2 10 4 10 3 0 8 -4 11
-10z m464 -24 c-5 -5 -125 -51 -164 -63 -36 -11 -138 -8 -142 4 -2 4 21 7 49
6 35 -2 46 0 34 5 -12 5 -15 11 -9 15 6 4 16 1 22 -7 13 -16 51 -10 141 23 52
19 78 26 69 17z m-394 -16 c8 -13 -14 -52 -26 -45 -5 4 -14 -7 -20 -24 -14
-41 -29 -39 -29 3 0 45 57 95 75 66z m140 -10 c7 -12 -2 -12 -30 0 -19 8 -19
9 2 9 12 1 25 -3 28 -9z m-798 -82 c-3 -8 -6 -5 -6 6 -1 11 2 17 5 13 3 -3 4
-12 1 -19z m-1839 5 c-21 -2 -57 -2 -80 0 -24 2 -7 4 37 4 44 0 63 -2 43 -4z
m2361 -26 c-2 -18 0 -38 5 -45 4 -7 1 -12 -8 -12 -17 0 -19 11 -10 59 8 41 16
40 13 -2z m-109 16 c0 -5 -5 -15 -10 -23 -8 -12 -10 -11 -10 8 0 12 5 22 10
22 6 0 10 -3 10 -7z m410 -3 c0 -13 -54 -40 -80 -40 -24 0 -26 13 -4 34 17 17
84 22 84 6z m476 -112 c-13 -101 -38 -184 -83 -275 -25 -51 -49 -93 -54 -93
-22 0 -5 69 45 187 29 71 61 152 71 181 9 28 19 52 22 52 3 0 2 -24 -1 -52z
m-544 15 c14 -16 36 -48 48 -73 13 -25 42 -67 65 -95 49 -58 95 -126 120 -175
10 -19 15 -33 13 -30 -100 105 -213 241 -232 279 -18 35 -36 54 -65 68 -37 19
-39 21 -23 36 23 24 45 21 74 -10z m-242 -23 c0 -5 -7 -10 -15 -10 -8 0 -15 5
-15 10 0 6 7 10 15 10 8 0 15 -4 15 -10z m127 -17 c-4 -3 -2 -12 4 -20 6 -7 8
-13 3 -13 -4 0 3 -11 16 -25 13 -14 19 -25 12 -25 -17 0 -55 59 -48 75 3 8 9
15 12 15 4 0 4 -3 1 -7z m73 -22 c0 -18 -14 -20 -26 -3 -19 25 -17 34 6 22 11
-6 20 -14 20 -19z m690 -36 c0 -43 -61 -209 -111 -305 -68 -127 -72 -130 -88
-76 -13 44 -12 45 29 113 23 37 67 121 98 185 54 112 72 133 72 83z m30 -43
c-88 -318 -342 -666 -564 -772 -86 -40 -228 -76 -336 -84 -36 -3 -54 -3 -40 0
14 3 81 16 149 30 97 19 145 35 217 70 51 26 101 56 111 67 l18 21 -30 -21
c-54 -36 -209 -102 -255 -108 l-45 -5 40 13 c75 26 230 107 290 152 94 71 204
184 251 257 65 102 137 251 174 361 17 54 34 97 36 94 2 -2 -5 -35 -16 -75z
m430 63 c-7 -9 -15 -13 -19 -10 -3 3 1 10 9 15 21 14 24 12 10 -5z m-37 -26
c-8 -8 -13 -7 -18 2 -5 8 -4 10 3 5 7 -4 12 -2 12 5 0 7 3 9 7 6 4 -4 2 -12
-4 -18z m-1316 -86 c-7 -120 -34 -211 -94 -315 -25 -43 -47 -78 -49 -78 -3 0
16 39 40 88 55 109 85 213 93 320 3 45 8 82 11 82 2 0 2 -44 -1 -97z m192 -4
c36 -19 81 -54 111 -85 80 -88 100 -125 30 -55 -137 136 -178 133 -220 -11
-34 -117 -67 -193 -124 -287 -52 -86 -152 -217 -195 -255 -32 -29 -25 -14 15
30 183 202 268 381 309 657 3 20 8 37 10 37 2 0 31 -14 64 -31z m-154 -11 c-2
-7 -11 -53 -20 -103 -19 -97 -48 -184 -69 -200 -6 -5 -31 -46 -55 -90 -23 -44
-47 -84 -53 -90 -13 -12 80 164 98 185 16 19 59 148 74 225 15 74 18 85 24 85
3 0 4 -6 1 -12z m-5100 -220 c150 -97 221 -132 475 -235 310 -125 578 -220
855 -303 172 -51 254 -80 261 -92 4 -6 -1 -6 -12 0 -11 5 -75 26 -144 46 -336
99 -611 194 -942 326 -258 103 -365 156 -501 248 -112 75 -277 199 -277 208 0
2 35 -22 78 -55 42 -32 136 -97 207 -143z m5102 10 c-3 -8 -6 -5 -6 6 -1 11 2
17 5 13 3 -3 4 -12 1 -19z m-10 -40 c-3 -8 -6 -5 -6 6 -1 11 2 17 5 13 3 -3 4
-12 1 -19z m663 -92 c0 -12 -5 -7 -19 24 -11 24 -11 24 3 6 9 -11 16 -24 16
-30z m-30 -26 c0 -3 -15 -20 -33 -38 l-33 -32 1 40 c0 29 5 42 18 46 9 3 17
11 17 17 1 12 30 -21 30 -33z m-3880 -55 c19 -19 32 -35 29 -35 -3 0 -20 16
-39 35 -19 19 -32 35 -29 35 3 0 20 -16 39 -35z m3758 -19 c9 -21 6 -27 -21
-53 -81 -76 -186 -144 -219 -143 -7 0 -21 7 -31 14 -17 13 -9 21 95 90 63 42
123 85 133 96 23 26 29 25 43 -4z m-188 -1 c0 -16 -49 -65 -66 -65 -6 0 -17 6
-23 14 -10 12 -5 19 26 40 42 29 63 33 63 11z m-2563 -12 c3 -7 9 -13 15 -13
5 0 6 6 3 13 -10 18 15 -12 64 -78 24 -33 71 -88 104 -122 l61 -62 -20 -22
c-28 -32 -63 -46 -127 -54 -85 -11 -457 -9 -562 3 -87 10 -152 32 -138 46 4 4
0 4 -9 1 -21 -8 -33 12 -18 29 12 16 3 67 -14 78 -8 5 -7 8 1 8 9 0 11 15 7
50 -4 48 -3 51 23 61 15 6 30 15 34 20 6 10 94 33 189 49 77 14 381 8 387 -7z
m-633 -324 c26 -11 78 -25 115 -29 l66 -9 -72 4 c-128 7 -171 37 -376 270 -38
44 -5 14 74 -67 108 -111 156 -153 193 -169z m3406 287 c0 -3 -4 -8 -10 -11
-5 -3 -10 -1 -10 4 0 6 5 11 10 11 6 0 10 -2 10 -4z m-745 -33 c-17 -33 -40
-59 -81 -93 -16 -13 -8 -2 17 25 26 28 52 60 58 73 7 12 14 22 17 22 2 0 -2
-12 -11 -27z m525 2 c-7 -8 -17 -15 -23 -15 -6 0 -2 7 9 15 25 19 30 19 14 0z
m-1330 -25 c13 -8 13 -10 -2 -10 -9 0 -20 5 -23 10 -8 13 5 13 25 0z m1205
-36 c-103 -50 -227 -79 -270 -64 -11 4 15 11 63 18 44 6 120 27 169 45 113 44
127 44 38 1z m-212 19 c-18 -2 -48 -2 -65 0 -18 2 -4 4 32 4 36 0 50 -2 33 -4z
m4439 -75 c-9 -9 -15 -9 -24 0 -9 9 -7 12 12 12 19 0 21 -3 12 -12z m-4394
-50 c-16 -10 -104 -9 -138 2 -16 5 8 7 63 7 48 0 82 -4 75 -9z m4052 -18 c0
-5 -5 -10 -11 -10 -5 0 -7 5 -4 10 3 6 8 10 11 10 2 0 4 -4 4 -10z m-7021 -71
c13 -11 22 -21 20 -22 -2 -1 -15 -8 -29 -16 -14 -8 -41 -23 -60 -33 -55 -29 5
-10 72 23 32 15 60 24 62 20 3 -4 -36 -25 -87 -46 -135 -56 -185 -82 -229
-117 -38 -30 -65 -33 -35 -4 23 23 129 84 160 91 15 4 24 11 22 16 -3 4 8 15
25 24 17 9 41 26 52 37 l21 21 -31 -6 c-36 -7 -41 -1 -14 19 22 17 23 17 51
-7z m3148 -5 c-3 -3 -12 -4 -19 -1 -8 3 -5 6 6 6 11 1 17 -2 13 -5z m-84 -21
c-7 -2 -19 -2 -25 0 -7 3 -2 5 12 5 14 0 19 -2 13 -5z m-2973 -22 c0 -7 -179
-91 -195 -91 -4 0 -38 -16 -76 -35 -39 -19 -73 -35 -77 -35 -21 0 107 68 192
101 55 21 112 46 126 54 30 17 30 17 30 6z m287 -4 c4 -6 0 -8 -10 -4 -10 3
-17 2 -17 -3 0 -5 -11 -12 -25 -16 -13 -3 -30 -13 -37 -22 -11 -14 -10 -15 7
-8 11 4 16 3 11 -1 -4 -4 -19 -8 -32 -8 l-24 -1 27 23 c16 12 34 22 41 23 18
0 15 18 -5 23 -10 2 -1 4 20 4 21 0 41 -5 44 -10z m-246 -10 c-6 -8 -30 -22
-53 -32 -24 -10 -67 -29 -96 -42 -29 -13 -57 -23 -63 -23 -12 0 -148 -67 -166
-82 -9 -7 -13 -7 -13 1 0 7 -5 9 -12 5 -7 -4 -11 -5 -8 -1 3 3 8 6 12 7 4 1
40 17 80 37 40 19 84 39 98 44 49 15 171 69 193 84 27 19 43 20 28 2z m49 -2
c-14 -8 -21 -14 -16 -15 12 0 -24 -40 -37 -40 -5 0 1 9 14 20 13 10 19 19 14
20 -6 0 -16 -5 -23 -12 -9 -9 -12 -9 -12 0 0 6 12 18 28 26 35 19 66 20 32 1z
m96 1 c15 4 13 1 -6 -15 -14 -11 -31 -21 -38 -21 -7 0 -11 -4 -8 -9 3 -5 -2
-15 -12 -22 -16 -13 -16 -13 -2 5 14 18 13 19 -5 13 -19 -6 -19 -6 -2 6 49 32
53 36 36 37 -9 0 -37 -18 -62 -40 -61 -54 -68 -51 -9 4 50 46 73 59 83 44 3
-5 14 -6 25 -2z m229 4 c-27 -4 -61 -11 -74 -15 -17 -6 -22 -5 -17 3 4 7 3 12
-3 12 -5 0 -13 -4 -16 -10 -3 -5 -11 -10 -16 -10 -5 0 -4 6 2 13 8 8 41 13 93
14 73 0 76 0 31 -7z m157 -6 c-12 -8 -28 -13 -35 -11 -7 3 -5 6 6 6 9 1 17 6
17 11 0 6 8 10 17 10 14 0 13 -3 -5 -16z m1296 -94 c-65 -70 -116 -115 -140
-124 -70 -29 -443 -99 -426 -80 5 4 18 8 31 10 45 5 323 65 371 81 40 13 68
35 152 119 56 57 105 104 109 104 3 0 -40 -49 -97 -110z m-1193 90 c-3 -5 -12
-10 -18 -10 -7 0 -6 4 3 10 19 12 23 12 15 0z m-215 -6 c0 -8 -19 -13 -24 -6
-3 5 1 9 9 9 8 0 15 -2 15 -3z m-675 -14 c-3 -5 -12 -10 -20 -10 -15 0 -128
-64 -158 -88 -9 -9 -19 -13 -22 -10 -11 11 24 38 99 77 77 40 113 51 101 31z
m485 6 c0 -2 -7 -7 -16 -10 -8 -3 -12 -2 -9 4 6 10 25 14 25 6z m120 0 c0 -2
-7 -7 -16 -10 -8 -3 -12 -2 -9 4 6 10 25 14 25 6z m195 -6 c-3 -5 -12 -10 -18
-10 -7 0 -6 4 3 10 19 12 23 12 15 0z m-279 -9 c-6 -9 -46 -22 -46 -15 0 3 10
9 23 14 29 11 29 11 23 1z m-292 -16 c-9 -22 -37 -35 -65 -29 -13 2 -18 1 -11
-2 16 -7 -80 -64 -143 -84 -22 -7 -49 -20 -60 -28 l-20 -14 20 7 c11 3 40 14
65 22 24 8 68 29 98 45 29 17 56 28 59 25 3 -4 -41 -29 -98 -56 -57 -28 -90
-48 -74 -44 17 3 61 21 99 40 37 19 71 32 74 29 3 -4 16 1 29 9 13 9 23 13 23
10 0 -4 10 1 22 9 25 18 42 21 34 7 -8 -12 -97 -53 -103 -47 -6 6 -58 -16
-113 -49 -38 -22 -41 -26 -17 -22 15 2 27 0 27 -5 0 -5 10 -3 23 3 22 12 22
12 4 -9 -18 -20 -21 -20 -70 -5 -29 9 -63 19 -77 23 -46 12 -31 26 84 75 33
14 57 27 54 30 -6 7 -149 -54 -170 -72 -9 -8 -23 -13 -30 -10 -22 8 179 99
203 92 13 -4 19 -3 16 3 -8 11 67 47 81 38 5 -3 15 1 22 9 16 19 21 19 14 0z
m335 11 c-2 -2 -15 -9 -29 -15 -24 -11 -24 -11 -6 3 16 13 49 24 35 12z m31
-16 c-19 -11 -39 -19 -45 -19 -5 0 6 8 25 19 19 11 40 19 45 19 6 0 -6 -8 -25
-19z m59 6 c-27 -27 -189 -122 -189 -111 0 2 22 16 49 30 27 13 51 28 53 33 1
5 21 19 43 30 39 21 52 26 44 18z m71 -6 c-8 -5 -19 -10 -25 -10 -5 0 -3 5 5
10 8 5 20 10 25 10 6 0 3 -5 -5 -10z m-261 -4 c-2 -2 -15 -9 -29 -15 -24 -11
-24 -11 -6 3 16 13 49 24 35 12z m-149 -10 c0 -2 -7 -7 -16 -10 -8 -3 -12 -2
-9 4 6 10 25 14 25 6z m170 -10 c-8 -8 -26 -17 -40 -20 -19 -5 -17 -2 10 13
42 24 49 26 30 7z m169 -9 c-20 -12 -51 -32 -70 -44 -19 -13 -38 -23 -44 -23
-5 0 22 20 59 45 38 25 74 45 80 45 6 0 -5 -10 -25 -23z m-424 3 c-3 -5 -16
-15 -28 -21 -21 -10 -21 -9 2 10 25 23 36 27 26 11z m121 1 c-3 -5 -17 -11
-32 -14 -29 -5 -20 9 11 16 11 3 21 5 23 6 2 0 1 -3 -2 -8z m25 -11 c-13 -11
-28 -20 -35 -20 -6 0 3 9 19 20 38 25 47 25 16 0z m147 0 c-7 -11 -16 -20 -20
-20 -4 0 -22 -13 -40 -28 -37 -32 -168 -105 -168 -94 0 4 28 21 61 37 69 34
152 99 141 110 -4 5 -2 5 5 1 6 -3 14 -2 18 4 3 5 8 10 11 10 2 0 -1 -9 -8
-20z m211 16 c-8 -8 -79 -35 -79 -30 0 6 60 33 74 34 5 0 7 -2 5 -4z m186 -6
c-3 -5 -12 -10 -18 -10 -7 0 -6 4 3 10 19 12 23 12 15 0z m35 -5 c0 -2 -10 -9
-22 -15 -22 -11 -22 -10 -4 4 21 17 26 19 26 11z m-210 -9 c0 -3 -13 -11 -30
-20 -16 -8 -30 -11 -30 -7 0 4 10 13 23 19 24 12 37 14 37 8z m60 0 c0 -2 -7
-7 -16 -10 -8 -3 -12 -2 -9 4 6 10 25 14 25 6z m80 0 c0 -2 -8 -10 -17 -17
-16 -13 -17 -12 -4 4 13 16 21 21 21 13z m-481 -10 c-2 -2 -53 -37 -114 -78
-107 -72 -164 -95 -151 -61 5 13 4 14 -9 3 -9 -7 -18 -10 -21 -7 -3 3 4 11 16
17 18 10 24 9 31 -1 12 -20 69 10 187 99 24 17 48 32 54 32 6 0 9 -2 7 -4z
m-89 -16 c-8 -5 -19 -10 -25 -10 -5 0 -3 5 5 10 8 5 20 10 25 10 6 0 3 -5 -5
-10z m95 -21 c-37 -25 -125 -71 -125 -65 0 2 21 17 48 32 26 15 49 30 52 34 6
8 30 18 45 19 6 1 -3 -8 -20 -20z m-161 -8 c-42 -26 -71 -34 -79 -22 -3 6 0 9
7 6 7 -3 29 4 48 14 45 25 65 27 24 2z m452 4 c-11 -8 -25 -15 -30 -15 -6 1 0
7 14 15 32 19 40 18 16 0z m-110 -10 c-11 -8 -25 -15 -30 -15 -6 1 0 7 14 15
32 19 40 18 16 0z m153 1 c-10 -9 -69 -36 -69 -32 0 7 52 35 64 36 5 0 7 -2 5
-4z m171 0 c0 -2 -8 -10 -17 -17 -16 -13 -17 -12 -4 4 13 16 21 21 21 13z
m-641 -10 c-15 -13 -102 -56 -106 -52 -5 5 85 55 101 56 5 0 7 -2 5 -4z m216
-6 c-3 -5 -12 -10 -18 -10 -7 0 -6 4 3 10 19 12 23 12 15 0z m285 5 c0 -2 -10
-9 -22 -15 -22 -11 -22 -10 -4 4 21 17 26 19 26 11z m2757 -9 c-3 -7 0 -19 6
-25 8 -8 8 -11 0 -11 -11 0 -23 22 -23 41 0 5 5 9 11 9 6 0 9 -6 6 -14z
m-3382 -4 c-13 -11 -65 -33 -65 -27 0 2 12 11 28 19 30 17 52 21 37 8z m715 4
c0 -2 -8 -10 -17 -17 -16 -13 -17 -12 -4 4 13 16 21 21 21 13z m140 1 c0 -2
-12 -14 -27 -28 l-28 -24 24 28 c23 25 31 32 31 24z m2413 -4 c-7 -2 -13 -13
-13 -23 0 -24 -20 -37 -21 -13 0 14 -2 14 -9 -4 -5 -13 -13 -23 -17 -23 -16 0
-37 19 -30 27 5 4 12 1 17 -7 7 -11 11 -8 21 13 11 24 27 34 54 35 6 0 4 -2
-2 -5z m88 -14 c12 -19 11 -29 -1 -29 -5 0 -10 7 -10 15 0 8 -4 15 -10 15 -5
0 -9 -6 -7 -12 1 -7 -6 -12 -15 -10 -11 2 -18 -3 -18 -14 0 -10 -3 -15 -6 -11
-9 9 6 48 17 42 5 -4 9 0 9 9 0 18 28 15 41 -5z m126 15 c-3 -3 -12 -4 -19 -1
-8 3 -5 6 6 6 11 1 17 -2 13 -5z m-3217 -29 c-25 -13 -49 -24 -55 -24 -5 0 10
11 35 24 25 13 50 24 55 24 6 0 -10 -11 -35 -24z m90 10 c-14 -8 -29 -14 -35
-14 -5 0 1 6 15 14 14 8 30 14 35 14 6 0 -1 -6 -15 -14z m85 5 c-3 -5 -12 -10
-18 -10 -7 0 -6 4 3 10 19 12 23 12 15 0z m205 5 c0 -2 -10 -9 -22 -15 -22
-11 -22 -10 -4 4 21 17 26 19 26 11z m235 -5 c-3 -5 -12 -10 -18 -10 -7 0 -6
4 3 10 19 12 23 12 15 0z m-476 -4 c-18 -19 -77 -52 -73 -42 3 7 19 20 37 29
34 16 43 20 36 13z m2881 -5 c0 -6 -4 -13 -10 -16 -5 -3 -10 1 -10 9 0 9 5 16
10 16 6 0 10 -4 10 -9z m-2985 -11 c-3 -5 -16 -15 -28 -21 -19 -9 -19 -8 3 10
28 23 34 26 25 11z m240 0 c-3 -5 -12 -10 -18 -10 -7 0 -6 4 3 10 19 12 23 12
15 0z m-225 -13 c0 -2 -12 -14 -27 -28 l-28 -24 24 28 c23 25 31 32 31 24z
m3120 -9 c0 -4 -4 -8 -9 -8 -6 0 -12 4 -15 8 -3 5 1 9 9 9 8 0 15 -4 15 -9z
m-3326 -15 c-18 -19 -54 -28 -54 -14 0 9 38 29 58 30 9 1 8 -4 -4 -16z m376
14 c0 -2 -12 -14 -27 -28 l-28 -24 24 28 c23 25 31 32 31 24z m-281 -33 c-13
-14 -25 -21 -27 -15 -2 5 -10 7 -18 4 -8 -3 -14 0 -14 7 0 9 -4 9 -17 -1 -14
-12 -16 -12 -11 1 5 16 58 22 58 7 0 -4 10 -1 22 7 32 23 35 20 7 -10z m193
-4 c-18 -16 -36 -30 -40 -30 -8 1 59 60 67 60 3 0 -9 -13 -27 -30z m188 26 c0
-2 -7 -7 -16 -10 -8 -3 -12 -2 -9 4 6 10 25 14 25 6z m260 0 c0 -2 -8 -10 -17
-17 -16 -13 -17 -12 -4 4 13 16 21 21 21 13z m-605 -26 c-10 -11 -23 -20 -29
-20 -6 1 0 10 13 20 30 26 39 26 16 0z m3183 -5 c-3 -3 -9 2 -12 12 -6 14 -5
15 5 6 7 -7 10 -15 7 -18z m-2948 -10 c-13 -14 -31 -25 -39 -24 -11 0 -10 3 4
9 12 4 27 15 34 24 7 9 16 16 19 16 3 0 -5 -11 -18 -25z m240 21 c0 -2 -8 -10
-17 -17 -16 -13 -17 -12 -4 4 13 16 21 21 21 13z m-385 -22 c-22 -16 -35 -18
-35 -5 0 6 -12 6 -32 0 -18 -5 -28 -5 -22 0 10 10 35 15 78 17 27 1 28 0 11
-12z m85 -4 c-10 -19 -30 -28 -30 -14 0 6 30 33 38 34 1 0 -2 -9 -8 -20z m108
-10 c-7 -10 -14 -17 -17 -15 -4 4 18 35 25 35 2 0 -1 -9 -8 -20z m210 0 c-10
-15 -23 -20 -55 -18 -23 0 -40 5 -37 9 3 5 17 6 32 3 16 -3 35 1 47 10 26 20
28 20 13 -4z m507 10 c-3 -5 -12 -10 -18 -10 -7 0 -6 4 3 10 19 12 23 12 15 0z
m-671 -15 c-4 -8 -11 -15 -16 -15 -6 0 -5 6 2 15 7 8 14 15 16 15 2 0 1 -7 -2
-15z m60 0 c-4 -8 -11 -15 -16 -15 -6 0 -5 6 2 15 7 8 14 15 16 15 2 0 1 -7
-2 -15z m446 11 c0 -2 -8 -10 -17 -17 -16 -13 -17 -12 -4 4 13 16 21 21 21 13z
m195 -6 c-3 -5 -12 -10 -18 -10 -7 0 -6 4 3 10 19 12 23 12 15 0z m-675 -10
c0 -5 -5 -10 -11 -10 -5 0 -7 5 -4 10 3 6 8 10 11 10 2 0 4 -4 4 -10z m183 -7
c-7 -2 -21 -2 -30 0 -10 3 -4 5 12 5 17 0 24 -2 18 -5z m44 1 c-3 -3 -12 -4
-19 -1 -8 3 -5 6 6 6 11 1 17 -2 13 -5z m33 2 c0 -3 -4 -8 -10 -11 -5 -3 -10
-1 -10 4 0 6 5 11 10 11 6 0 10 -2 10 -4z m90 0 c0 -3 -4 -8 -10 -11 -5 -3
-10 -1 -10 4 0 6 5 11 10 11 6 0 10 -2 10 -4z m4998 -45 c3 -8 -1 -12 -9 -9
-7 2 -15 10 -17 17 -3 8 1 12 9 9 7 -2 15 -10 17 -17z m-1 -57 c-3 -3 -12 -4
-19 -1 -8 3 -5 6 6 6 11 1 17 -2 13 -5z m-597 -194 c0 -5 -4 -10 -9 -10 -6 0
-13 5 -16 10 -3 6 1 10 9 10 9 0 16 -4 16 -10z m-7610 -15 c0 -8 -4 -15 -10
-15 -5 0 -10 7 -10 15 0 8 5 15 10 15 6 0 10 -7 10 -15z m7524 -49 c-6 -16
-34 -30 -34 -18 0 10 22 32 32 32 4 0 5 -6 2 -14z m-48 -30 c3 -7 16 -12 30
-10 19 2 24 -1 20 -13 -3 -8 -6 -19 -6 -24 0 -5 -4 -9 -10 -9 -5 0 -10 7 -10
15 0 8 -5 15 -11 15 -6 0 -9 -7 -5 -15 4 -11 -1 -15 -17 -15 -17 0 -19 2 -7
10 12 8 12 11 -3 28 -9 10 -17 22 -17 25 0 13 31 7 36 -7z m374 4 c0 -5 -4
-10 -10 -10 -5 0 -10 5 -10 10 0 6 5 10 10 10 6 0 10 -4 10 -10z m-7287 -250
c14 -11 30 -20 36 -20 6 0 11 -4 11 -10 0 -5 -20 -10 -45 -10 -43 0 -45 1 -45
30 0 35 8 37 43 10z m6243 -45 c-36 -19 -42 -19 -26 0 7 8 22 15 34 15 18 0
17 -2 -8 -15z m-6213 -12 c-13 -2 -33 -2 -45 0 -13 2 -3 4 22 4 25 0 35 -2 23
-4z m6244 1 c-3 -3 -12 -4 -19 -1 -8 3 -5 6 6 6 11 1 17 -2 13 -5z m169 -71
c-11 -11 -19 6 -11 24 8 17 8 17 12 0 3 -10 2 -21 -1 -24z m-353 10 c-7 -2
-21 -2 -30 0 -10 3 -4 5 12 5 17 0 24 -2 18 -5z m-136 -125 c-3 -8 -6 -5 -6 6
-1 11 2 17 5 13 3 -3 4 -12 1 -19z m160 -34 c-3 -3 -12 -4 -19 -1 -8 3 -5 6 6
6 11 1 17 -2 13 -5z m-5440 -38 c3 -3 -17 -6 -45 -6 -29 0 -52 4 -52 10 0 10
86 7 97 -4z m530 -118 c-3 -8 -6 -5 -6 6 -1 11 2 17 5 13 3 -3 4 -12 1 -19z
m426 -98 c11 0 17 -8 17 -21 0 -18 2 -19 15 -9 12 10 15 10 15 -4 0 -13 -11
-16 -55 -16 -55 0 -55 0 -55 31 0 28 3 31 23 25 12 -3 30 -6 40 -6z m3691 -12
c9 -33 8 -38 -8 -38 -20 0 -29 16 -21 40 8 26 21 25 29 -2z m-3004 -150 c0 -4
-25 -8 -55 -8 -31 0 -55 4 -55 10 0 6 23 10 55 9 30 -1 55 -6 55 -11z m2710 3
c0 -18 -20 -23 -63 -15 -34 5 -38 8 -22 15 28 11 85 11 85 0z m-2395 -70 c-17
-7 -15 -9 15 -16 41 -9 60 -22 60 -42 0 -11 -12 -13 -52 -11 -47 3 -53 6 -56
26 -5 35 5 52 30 51 22 0 22 -1 3 -8z m2128 -48 c-7 -2 -21 -2 -30 0 -10 3 -4
5 12 5 17 0 24 -2 18 -5z m-233 -12 c0 -5 -9 -7 -20 -4 -11 3 -20 7 -20 9 0 2
9 4 20 4 11 0 20 -4 20 -9z"/>
<path d="M5978 8493 c6 -2 18 -2 25 0 6 3 1 5 -13 5 -14 0 -19 -2 -12 -5z"/>
<path d="M7700 6890 c-14 -11 -20 -20 -13 -20 11 0 43 26 43 36 0 7 -4 5 -30
-16z"/>
<path d="M7158 6753 c6 -2 18 -2 25 0 6 3 1 5 -13 5 -14 0 -19 -2 -12 -5z"/>
<path d="M6622 5645 c0 -16 2 -22 5 -12 2 9 2 23 0 30 -3 6 -5 -1 -5 -18z"/>
<path d="M4793 5023 c15 -2 37 -2 50 0 12 2 0 4 -28 4 -27 0 -38 -2 -22 -4z"/>
<path d="M3676 5772 c-3 -5 1 -9 9 -9 8 0 12 4 9 9 -3 4 -7 8 -9 8 -2 0 -6 -4
-9 -8z"/>
<path d="M3610 5730 c0 -9 39 -25 45 -18 2 2 -7 8 -21 15 -13 6 -24 7 -24 3z"/>
<path d="M3680 5700 c8 -5 20 -10 25 -10 6 0 3 5 -5 10 -8 5 -19 10 -25 10 -5
0 -3 -5 5 -10z"/>
<path d="M3595 5598 c32 -22 97 -49 90 -38 -8 12 -50 35 -85 45 -24 6 -24 6
-5 -7z"/>
<path d="M3670 5600 c8 -5 20 -10 25 -10 6 0 3 5 -5 10 -8 5 -19 10 -25 10 -5
0 -3 -5 5 -10z"/>
<path d="M5575 5200 c-3 -5 -2 -10 4 -10 5 0 13 5 16 10 3 6 2 10 -4 10 -5 0
-13 -4 -16 -10z"/>
<path d="M1919 3730 c-31 -26 -15 -26 18 0 14 11 21 20 15 20 -5 0 -20 -9 -33
-20z"/>
<path d="M1955 3720 c-3 -6 1 -7 9 -4 18 7 21 14 7 14 -6 0 -13 -4 -16 -10z"/>
<path d="M1979 3671 c-20 -16 -21 -21 -8 -26 8 -3 31 1 50 9 19 8 28 15 21 16
-7 0 -22 -5 -33 -11 -11 -6 -25 -8 -32 -6 -7 3 4 12 23 20 19 9 28 16 19 17
-9 0 -27 -9 -40 -19z"/>
<path d="M1930 3630 c-8 -5 -10 -10 -5 -10 6 0 17 5 25 10 8 5 11 10 5 10 -5
0 -17 -5 -25 -10z"/>
<path d="M2010 3630 c-8 -5 -11 -12 -8 -16 4 -3 14 1 23 10 18 17 9 21 -15 6z"/>
<path d="M2035 3606 c-11 -7 -33 -16 -49 -20 -15 -4 -27 -9 -25 -11 8 -8 56 8
79 26 29 21 24 26 -5 5z"/>
<path d="M2086 3581 c-4 -5 3 -7 14 -4 23 6 26 13 6 13 -8 0 -17 -4 -20 -9z"/>
<path d="M2080 3545 c-36 -19 -61 -34 -57 -35 10 0 127 59 127 65 0 7 2 8 -70
-30z"/>
<path d="M2034 3554 c-18 -14 -18 -14 6 -3 31 14 36 19 24 19 -6 0 -19 -7 -30
-16z"/>
<path d="M2125 3534 c-22 -13 -37 -24 -33 -24 14 0 78 34 78 42 0 10 3 11 -45
-18z"/>
<path d="M2050 3500 c-8 -5 -10 -10 -5 -10 6 0 17 5 25 10 8 5 11 10 5 10 -5
0 -17 -5 -25 -10z"/>
<path d="M2175 3479 c-43 -20 -34 -26 12 -7 15 6 32 10 36 9 5 -1 6 3 2 9 -3
5 -7 10 -8 9 -1 0 -20 -9 -42 -20z"/>
<path d="M2215 3453 l-30 -14 30 6 c31 7 41 12 34 19 -2 2 -17 -3 -34 -11z"/>
<path d="M2119 3430 c-9 -6 -6 -8 14 -6 32 3 43 11 18 13 -9 1 -24 -2 -32 -7z"/>
<path d="M2225 3425 l-30 -14 30 6 c17 3 34 10 40 14 14 13 -5 10 -40 -6z"/>
<path d="M2270 3410 c-9 -6 -10 -10 -3 -10 6 0 15 5 18 10 8 12 4 12 -15 0z"/>
<path d="M2108 3394 c-39 -21 -35 -28 5 -8 37 19 44 24 31 24 -5 -1 -21 -8
-36 -16z"/>
<path d="M2125 3370 c-16 -11 -25 -20 -20 -20 10 0 64 39 55 40 -3 0 -18 -9
-35 -20z"/>
<path d="M2176 3381 c-4 -5 3 -7 14 -4 23 6 26 13 6 13 -8 0 -17 -4 -20 -9z"/>
<path d="M2195 3356 c-27 -14 -47 -25 -44 -25 9 -1 99 39 99 44 0 7 -1 7 -55
-19z"/>
<path d="M2298 3363 c7 -3 16 -2 19 1 4 3 -2 6 -13 5 -11 0 -14 -3 -6 -6z"/>
<path d="M2309 3333 c-12 -16 -12 -17 1 -7 8 6 22 14 30 17 13 5 12 6 -1 6 -9
1 -23 -7 -30 -16z"/>
<path d="M2115 3330 c-3 -5 -2 -10 4 -10 5 0 13 5 16 10 3 6 2 10 -4 10 -5 0
-13 -4 -16 -10z"/>
<path d="M2191 3324 c-13 -9 -34 -16 -47 -16 -13 0 -27 -4 -30 -9 -3 -5 3 -6
12 -2 11 4 15 2 11 -4 -4 -6 16 0 43 14 28 14 50 27 50 29 0 9 -16 3 -39 -12z"/>
<path d="M2200 3299 c-82 -42 -88 -50 -15 -19 54 23 59 24 49 9 -4 -8 -1 -8
12 -1 11 5 26 12 34 16 8 3 2 4 -13 1 -19 -4 -26 -2 -22 5 3 5 12 10 20 10 8
0 17 5 20 10 10 16 -6 11 -85 -31z"/>
<path d="M2336 3285 c-22 -13 -70 -33 -108 -45 -37 -12 -68 -26 -68 -31 0 -6
5 -7 12 -3 7 4 47 20 89 34 42 15 89 37 104 49 36 27 21 25 -29 -4z"/>
<path d="M2375 3274 c-18 -14 -24 -24 -15 -24 17 0 51 20 35 20 -5 0 -3 4 5
10 8 5 12 11 10 14 -3 2 -18 -7 -35 -20z"/>
<path d="M2149 3239 c-23 -19 -23 -20 -2 -10 12 6 25 16 28 21 10 16 -1 12
-26 -11z"/>
<path d="M2237 3213 c-49 -19 -86 -37 -84 -39 5 -5 187 65 187 72 0 7 -14 3
-103 -33z"/>
<path d="M2310 3215 c-25 -13 -42 -24 -38 -24 11 -1 98 38 98 44 0 8 -12 4
-60 -20z"/>
<path d="M2201 3169 c-24 -11 -42 -22 -39 -24 6 -6 98 32 98 40 0 8 -12 5 -59
-16z"/>
<path d="M2225 3148 c-22 -12 -35 -23 -29 -25 11 -4 84 34 84 43 0 8 -16 3
-55 -18z"/>
<path d="M9293 8533 c9 -2 23 -2 30 0 6 3 -1 5 -18 5 -16 0 -22 -2 -12 -5z"/>
<path d="M9570 8473 c100 -24 442 -114 505 -132 17 -5 60 -18 98 -29 37 -12
67 -17 67 -12 0 5 -4 11 -9 15 -25 15 -702 184 -736 184 -16 0 17 -12 75 -26z"/>
<path d="M9830 7760 c-9 -6 -10 -10 -3 -10 6 0 15 5 18 10 8 12 4 12 -15 0z"/>
<path d="M9760 7730 c-8 -5 -10 -10 -5 -10 6 0 17 5 25 10 8 5 11 10 5 10 -5
0 -17 -5 -25 -10z"/>
<path d="M9690 7703 c-115 -42 -341 -133 -395 -160 -78 -39 -111 -64 -50 -38
22 9 137 57 255 106 118 50 216 92 219 94 6 6 -10 5 -29 -2z"/>
<path d="M2770 7423 c-79 -29 -276 -110 -355 -147 -55 -25 -91 -39 -81 -31 11
8 23 15 28 15 4 0 8 5 8 11 0 7 -12 10 -29 7 -21 -3 -28 -1 -24 9 6 15 -4 16
-197 14 -391 -4 -715 -106 -1166 -366 -126 -73 -164 -102 -165 -129 -1 -20 -2
-20 -6 -1 -8 34 -23 41 -23 12 0 -34 -41 -56 -51 -28 -4 9 -8 -5 -10 -33 -4
-43 -8 -52 -34 -66 -16 -9 -50 -37 -75 -62 -25 -25 -52 -47 -60 -50 -8 -2 16
-21 58 -43 40 -22 72 -42 72 -46 0 -4 -29 9 -64 27 -55 30 -70 33 -110 28 -25
-4 -46 -11 -46 -17 0 -6 -7 -18 -16 -28 -15 -17 -14 -21 7 -56 l23 -38 -22 19
c-12 11 -26 33 -31 50 l-8 31 -11 -25 c-6 -14 -11 -19 -11 -12 -1 7 -6 10 -11
7 -6 -4 -8 -11 -5 -16 3 -5 -2 -6 -12 -3 -10 3 0 -11 22 -31 40 -37 34 -38
-17 -3 -29 20 -42 23 -33 8 3 -5 -1 -10 -9 -10 -9 0 -16 -5 -16 -11 0 -5 -14
-15 -30 -20 -17 -6 -30 -15 -30 -19 0 -5 -16 -18 -35 -30 -19 -12 -35 -28 -35
-36 0 -8 -3 -14 -7 -14 -11 0 -43 -58 -43 -76 0 -8 -5 -13 -11 -12 -6 2 -16
-6 -22 -17 -7 -11 -17 -24 -24 -30 -6 -5 -21 -27 -32 -48 -19 -34 -21 -54 -21
-232 0 -107 2 -195 5 -195 18 0 85 36 124 66 l46 36 -49 -45 c-26 -25 -66 -53
-87 -62 l-39 -18 1 -136 c0 -109 3 -132 12 -117 7 10 28 36 47 57 19 22 40 45
46 52 33 36 125 116 163 142 24 16 56 41 71 55 24 21 345 225 405 256 11 5 37
20 58 33 l37 23 0 -27 c0 -31 25 -89 47 -106 8 -8 5 3 -7 24 -37 63 -31 96 29
166 62 72 76 79 29 16 -44 -59 -58 -86 -58 -109 0 -30 36 -97 77 -146 48 -56
183 -156 252 -187 49 -22 55 -23 77 -8 102 66 742 744 858 908 64 92 94 140
101 167 6 20 -6 12 -57 -38 -45 -45 -59 -65 -50 -71 9 -5 10 -14 3 -32 -10
-26 -111 -143 -117 -136 -2 2 0 17 6 33 5 16 11 47 13 69 2 30 9 43 27 53 22
11 18 12 -43 10 -48 -2 -67 0 -67 10 0 6 4 12 9 12 5 0 19 24 31 53 65 154
142 274 255 396 22 24 39 47 38 52 -2 4 6 10 15 14 29 9 79 65 65 73 -17 11
96 70 272 142 83 35 152 64 154 66 6 5 -11 4 -29 -3z m-1110 -647 c0 -2 -8
-10 -17 -17 -16 -13 -17 -12 -4 4 13 16 21 21 21 13z m-89 -74 c-161 -139
-339 -300 -447 -404 -67 -65 -125 -118 -130 -118 -23 0 318 320 515 482 112
93 154 119 62 40z m92 -255 c-44 -81 -170 -274 -185 -283 -7 -4 -7 0 0 12 37
73 82 176 112 256 l18 48 -26 -6 c-15 -4 -35 -11 -44 -15 -30 -16 -34 -9 -4 8
36 19 160 63 165 58 2 -2 -15 -37 -36 -78z m-163 -2 c0 -3 -30 -20 -67 -39
-91 -46 -220 -128 -322 -204 -46 -35 -85 -61 -88 -59 -12 12 280 208 412 276
65 33 65 33 65 26z m-1112 -322 c-10 -2 -26 -2 -35 0 -10 3 -2 5 17 5 19 0 27
-2 18 -5z m-81 -9 c-3 -3 -12 -4 -19 -1 -8 3 -5 6 6 6 11 1 17 -2 13 -5z m543
-8 c0 -2 -7 -7 -16 -10 -8 -3 -12 -2 -9 4 6 10 25 14 25 6z m-45 -25 c-8 -7
-207 -136 -252 -165 -7 -4 -13 -5 -13 -2 0 6 126 92 207 141 58 35 76 43 58
26z m-545 -226 c-41 -41 -75 -73 -77 -71 -4 4 139 146 147 146 2 0 -29 -34
-70 -75z"/>
<path d="M2395 7230 c-13 -6 -15 -9 -5 -9 8 0 22 4 30 9 18 12 2 12 -25 0z"/>
<path d="M915 5850 c10 -11 20 -20 23 -20 3 0 -3 9 -13 20 -10 11 -20 20 -23
20 -3 0 3 -9 13 -20z"/>
<path d="M1324 5618 l-19 -23 23 19 c21 18 27 26 19 26 -2 0 -12 -10 -23 -22z"/>
<path d="M10140 3381 c0 -6 5 -13 10 -16 6 -3 10 1 10 9 0 9 -4 16 -10 16 -5
0 -10 -4 -10 -9z"/>
<path d="M9310 3180 c0 -13 18 -22 24 -11 3 5 -1 11 -9 15 -8 3 -15 1 -15 -4z"/>
<path d="M9320 3091 c0 -31 14 -49 25 -31 4 6 10 8 14 6 4 -3 8 7 9 20 1 15
-2 22 -8 19 -6 -3 -10 -1 -10 4 0 6 -7 11 -15 11 -10 0 -15 -10 -15 -29z"/>
<path d="M9000 2919 c0 -5 5 -7 10 -4 6 3 10 8 10 11 0 2 -4 4 -10 4 -5 0 -10
-5 -10 -11z"/>
<path d="M8797 2883 c-4 -3 -7 -18 -7 -32 0 -25 2 -26 42 -23 32 3 45 0 55
-14 12 -16 13 -13 13 24 0 40 -1 42 -25 36 -15 -4 -25 -2 -25 5 0 12 -42 15
-53 4z"/>
<path d="M7940 2356 c0 -18 6 -25 28 -28 43 -6 62 1 55 20 -9 23 -23 32 -55
32 -23 0 -28 -4 -28 -24z"/>
<path d="M7591 2234 c0 -11 3 -14 6 -6 3 7 2 16 -1 19 -3 4 -6 -2 -5 -13z"/>
<path d="M7616 2225 c-8 -21 1 -35 20 -35 10 0 14 8 12 22 -4 27 -23 34 -32
13z"/>
<path d="M992 1988 c6 -18 28 -21 28 -4 0 9 -7 16 -16 16 -9 0 -14 -5 -12 -12z"/>
<path d="M1625 1730 c3 -5 8 -10 11 -10 2 0 4 5 4 10 0 6 -5 10 -11 10 -5 0
-7 -4 -4 -10z"/>
<path d="M2188 1612 c-30 -2 -38 -7 -38 -23 0 -10 6 -19 13 -19 8 0 24 -11 37
-25 33 -35 40 -32 42 18 l1 42 7 -50 7 -50 1 55 c2 61 5 59 -70 52z"/>
<path d="M6013 1583 c9 -2 23 -2 30 0 6 3 -1 5 -18 5 -16 0 -22 -2 -12 -5z"/>
<path d="M2797 1484 c-10 -10 -9 -26 2 -20 5 3 22 -1 37 -9 l29 -15 -35 -1
c-19 0 -28 -3 -20 -6 8 -2 30 -12 48 -20 19 -8 36 -12 39 -9 3 3 6 22 7 43 l1
38 -50 3 c-28 2 -54 0 -58 -4z m90 -56 c-3 -7 -5 -2 -5 12 0 14 2 19 5 13 2
-7 2 -19 0 -25z"/>
<path d="M6040 1464 l-45 -13 53 1 c36 1 52 6 52 15 0 15 0 15 -60 -3z"/>
<path d="M3171 1344 c0 -11 3 -14 6 -6 3 7 2 16 -1 19 -3 4 -6 -2 -5 -13z"/>
<path d="M3213 1350 c-16 -6 -20 -14 -16 -31 5 -18 11 -21 44 -16 30 4 39 1
42 -12 3 -9 5 3 6 27 1 40 -1 42 -26 41 -16 0 -38 -4 -50 -9z"/>
</g>
</svg>
