<?xml version="1.0" standalone="no"?>
<!DOCTYPE svg PUBLIC "-//W3C//DTD SVG 20010904//EN"
 "http://www.w3.org/TR/2001/REC-SVG-20010904/DTD/svg10.dtd">
<svg version="1.0" xmlns="http://www.w3.org/2000/svg"
 width="580.000000pt" height="386.000000pt" viewBox="0 0 580.000000 386.000000"
 preserveAspectRatio="xMidYMid meet">

<g transform="translate(0.000000,386.000000) scale(0.100000,-0.100000)"
fill="#000000" stroke="none">
<path d="M3115 3003 c-16 -2 -84 -13 -150 -24 -134 -22 -164 -36 -395 -187
-102 -67 -120 -75 -158 -74 -80 3 -99 -15 -127 -123 -4 -15 -349 -99 -572
-140 -218 -40 -325 -71 -433 -125 -206 -104 -351 -259 -406 -437 -23 -72 -25
-93 -20 -165 18 -232 18 -288 1 -314 -9 -14 -19 -56 -22 -95 l-6 -69 44 0 c37
-1 54 -8 109 -51 90 -69 210 -125 450 -209 113 -40 229 -85 258 -102 l54 -29
356 -6 357 -5 175 42 c96 24 189 45 205 47 17 3 76 -7 130 -22 83 -23 114 -27
189 -23 147 6 230 61 282 186 38 91 67 136 106 165 18 13 266 142 552 285
l518 261 53 -44 c30 -24 63 -46 75 -50 57 -18 123 23 154 95 21 52 46 193 46
264 0 39 5 69 15 82 11 15 14 55 15 189 0 190 -9 267 -41 331 -28 60 -64 77
-169 81 -83 4 -89 6 -235 79 -232 115 -472 169 -830 185 -190 8 -523 9 -580 2z
m190 -104 c266 -21 521 -47 548 -55 9 -3 17 -11 17 -18 0 -6 -44 -106 -99
-221 l-98 -210 -34 1 c-19 0 -180 21 -359 47 -358 51 -692 92 -873 106 -65 5
-120 11 -122 13 -1 1 117 85 264 186 l266 182 125 -6 c69 -3 233 -14 365 -25z
m952 -34 c27 -8 58 -24 68 -35 9 -10 30 -63 45 -117 34 -116 39 -108 9 13 -12
46 -19 88 -15 91 22 22 172 -62 182 -102 17 -68 -14 -94 -181 -151 l-110 -37
-81 16 c-117 24 -170 22 -197 -6 -12 -13 -30 -37 -39 -55 -16 -30 -61 -52 -75
-38 -4 4 -10 34 -15 69 -7 60 -6 65 34 146 92 185 217 253 375 206z m344 -144
c41 -41 38 -74 -11 -127 -36 -40 -49 -64 -34 -64 3 0 31 15 62 33 85 49 156
77 197 77 50 0 94 -25 110 -63 18 -45 28 -139 17 -168 -6 -16 -5 -46 4 -89 14
-71 12 -88 -5 -38 -16 44 -50 78 -79 78 -16 0 -38 -14 -61 -38 -60 -63 -96
-147 -181 -422 l-20 -65 6 70 c15 201 117 445 204 490 35 18 91 20 108 3 8 -8
12 -8 12 -1 0 6 -14 16 -31 23 -73 31 -162 -40 -218 -174 -17 -40 -43 -118
-59 -172 l-28 -99 -52 -19 c-29 -10 -55 -16 -58 -14 -2 3 7 50 21 104 14 54
29 150 33 212 9 113 19 138 49 128 6 -3 19 1 30 9 16 12 15 13 -16 12 -32 -2
-37 2 -77 68 -24 39 -44 78 -44 87 0 10 18 29 40 43 50 32 54 42 42 100 -11
53 -3 57 39 16z m-101 -233 c56 -88 59 -96 27 -75 -50 33 -106 19 -127 -32
-11 -28 -26 -35 -298 -125 -157 -53 -287 -94 -289 -92 -2 2 -6 41 -10 87 l-6
84 94 23 c52 12 144 27 204 33 98 9 112 13 133 35 15 17 20 33 16 48 -7 31 12
44 98 66 110 27 107 28 158 -52z m-2765 -48 c-11 -5 -79 -25 -152 -44 -191
-51 -301 -110 -481 -260 -151 -125 -182 -134 -89 -24 96 113 253 213 418 267
57 19 285 69 314 70 6 0 1 -4 -10 -9z m2726 -33 c-31 -16 -32 -31 -2 -35 19
-3 22 0 17 13 -4 12 -1 16 12 13 29 -6 21 -41 -12 -49 -31 -9 -66 4 -66 23 0
20 32 48 54 48 20 0 20 -1 -3 -13z m-2806 -32 c-27 -14 -72 -34 -100 -46 l-50
-22 28 -10 c15 -6 27 -14 27 -18 0 -3 -24 -22 -54 -42 l-54 -36 -66 28 c-36
15 -68 30 -71 33 -6 5 361 137 380 137 6 -1 -12 -11 -40 -24z m2165 1 c0 -21
-10 -25 -117 -46 -60 -12 -186 -24 -323 -31 l-225 -11 -305 -85 c-286 -80
-398 -121 -455 -168 -19 -15 -18 -16 25 -9 25 3 122 21 217 40 95 19 177 34
183 34 7 0 -10 -17 -37 -39 -56 -45 -98 -89 -92 -96 3 -2 22 0 43 6 21 6 39 9
41 7 2 -2 -42 -41 -97 -88 l-100 -85 -181 -34 c-100 -19 -213 -34 -252 -35
-63 0 -79 4 -164 44 -94 45 -94 46 -70 61 45 29 542 301 585 320 23 11 130 42
236 70 106 28 233 62 283 75 106 29 195 39 455 55 107 6 218 15 245 19 83 12
105 11 105 -4z m707 -113 c-8 -131 -69 -385 -104 -436 -46 -66 -86 -89 -554
-307 -91 -42 -189 -93 -218 -114 -30 -20 -56 -34 -59 -31 -15 14 34 99 84 145
69 63 139 102 368 205 217 99 365 172 389 193 9 8 17 27 17 42 l0 28 -177 -71
c-98 -39 -238 -102 -312 -139 -73 -38 -136 -66 -140 -63 -3 4 -8 98 -9 209 -4
190 -3 204 15 211 10 4 142 49 293 99 213 72 284 91 315 88 31 -3 47 1 65 17
14 11 27 20 29 21 2 0 1 -44 -2 -97z m-2127 53 c0 -3 -52 -32 -115 -66 -63
-34 -113 -65 -110 -70 3 -4 41 -11 85 -15 44 -4 82 -10 85 -14 2 -4 -22 -20
-53 -34 l-57 -27 -148 14 c-81 7 -149 15 -152 17 -2 3 101 48 228 101 256 107
237 100 237 94z m1374 -23 c3 -16 8 -53 11 -83 l7 -55 -153 -59 c-155 -60
-189 -81 -189 -116 0 -17 -4 -19 -27 -13 -16 5 -57 8 -93 7 -119 -1 -260 -95
-346 -230 -20 -32 -38 -60 -39 -62 -1 -1 -51 25 -110 58 -99 55 -114 60 -169
60 l-60 0 30 31 c92 99 211 183 359 255 138 68 172 79 420 144 149 39 281 75
295 80 45 15 58 11 64 -17z m1020 -167 c-3 -15 -8 -25 -11 -23 -2 3 -1 17 3
31 3 15 8 25 11 23 2 -3 1 -17 -3 -31z m69 3 c-22 -37 -41 -54 -50 -45 -6 5
54 76 65 76 2 0 -5 -14 -15 -31z m-1150 -533 l-78 -74 -7 108 c-8 132 -33 190
-114 274 -30 31 -54 62 -54 70 0 23 22 35 177 95 l148 58 3 -228 2 -228 -77
-75z m1167 454 c14 -4 18 -9 10 -9 -8 -1 -25 -4 -37 -7 -17 -5 -23 -2 -23 10
0 17 11 19 50 6z m-3361 -179 c279 -83 518 -154 532 -159 27 -10 25 -11 -181
-35 l-105 -13 -422 139 c-233 77 -423 142 -423 146 0 18 64 82 77 77 7 -3 242
-73 522 -155z m3338 97 c38 -43 36 -50 -6 -29 -28 15 -39 26 -35 36 8 21 17
19 41 -7z m-1438 -27 c72 -27 115 -64 149 -129 58 -108 63 -248 15 -389 l-18
-52 0 142 c-1 165 -17 236 -68 294 -80 90 -226 98 -333 17 -67 -51 -185 -226
-235 -347 -35 -84 -78 -280 -89 -402 -7 -76 -8 -66 -5 65 6 257 52 429 157
586 84 126 239 234 335 234 24 0 65 -8 92 -19z m1400 -22 c15 -44 14 -44 -13
-12 -13 15 -22 31 -19 35 9 16 21 7 32 -23z m-60 -1 c-1 -13 -5 -34 -9 -48 -7
-20 -8 -16 -9 23 -1 26 4 47 9 47 6 0 10 -10 9 -22z m-3812 -20 c6 -7 27 -67
48 -133 20 -66 44 -132 51 -147 16 -31 5 -37 -18 -10 -28 31 -55 96 -72 168
-28 127 -31 129 -56 47 -12 -40 -24 -73 -27 -73 -10 0 4 116 16 139 13 23 43
28 58 9z m418 -132 l320 -94 -4 -93 c-2 -52 -5 -96 -7 -98 -3 -4 -101 24 -488
140 -71 21 -133 43 -136 50 -4 6 -10 41 -14 78 -4 36 -9 76 -13 89 -3 15 -1
22 8 22 8 0 158 -42 334 -94z m1451 -32 l84 -46 -35 -43 c-33 -40 -44 -45
-181 -90 -135 -43 -167 -49 -402 -76 -140 -16 -256 -28 -258 -26 -2 2 27 18
64 36 55 27 64 30 48 12 -11 -12 -14 -21 -9 -21 6 0 103 13 217 30 267 38 449
88 489 133 15 17 27 34 27 37 0 3 -34 22 -75 43 -67 33 -84 37 -150 37 -43 0
-75 4 -75 10 0 6 35 10 86 10 83 0 89 -1 170 -46z m-226 -44 c0 -70 -77 -104
-134 -59 -23 18 -27 28 -24 63 2 29 8 42 21 44 11 2 17 -3 17 -16 0 -11 9 -22
21 -25 20 -5 20 -6 3 -32 l-17 -26 39 3 c48 4 58 32 23 60 -23 18 -23 19 -5
33 30 23 56 3 56 -45z m113 27 c15 -12 27 -28 27 -34 0 -18 -48 -63 -67 -63
-13 0 -12 5 7 25 32 34 21 40 -20 10 -57 -42 -68 -28 -22 26 19 24 22 31 10
26 -12 -4 -18 -2 -18 7 0 33 46 35 83 3z m-391 -33 c21 -19 50 -36 65 -40 43
-10 50 -18 23 -24 -17 -4 -24 -12 -22 -24 3 -16 -1 -18 -30 -12 -18 4 -43 7
-56 6 -12 0 -30 7 -40 15 -9 9 -34 29 -54 46 -21 17 -38 35 -38 40 0 18 28 8
95 -36 38 -25 75 -43 83 -40 10 4 -3 14 -36 31 -58 29 -77 47 -68 69 7 20 32
10 78 -31z m-1257 -119 c107 -52 227 -93 390 -134 136 -34 377 -81 414 -81 17
0 42 16 72 46 26 25 49 42 53 36 8 -14 -66 -115 -96 -130 -22 -10 -51 -8 -183
13 -291 47 -472 98 -635 180 -112 57 -163 95 -183 138 -31 64 -20 71 31 22 28
-28 83 -64 137 -90z m1098 90 c26 -31 46 -45 62 -45 14 0 25 -4 25 -10 0 -17
-64 -11 -98 10 -18 11 -40 20 -50 20 -20 0 -62 27 -62 40 0 4 9 6 20 3 11 -3
20 -1 20 5 0 9 11 14 40 21 3 0 23 -19 43 -44z m1179 -69 l40 39 -48 -67 c-26
-37 -49 -66 -52 -64 -2 2 0 42 5 88 l8 83 3 -59 3 -59 41 39z m-1593 -33 c-11
-49 -22 -97 -26 -107 -5 -18 -1 -19 48 -13 30 4 86 10 124 13 64 6 69 5 55 -9
-11 -11 -49 -19 -129 -27 -62 -6 -115 -9 -118 -7 -2 2 3 33 11 68 8 35 20 90
26 122 6 31 15 55 20 52 4 -3 -1 -44 -11 -92z m363 45 c32 -23 58 -44 58 -47
0 -4 -41 -27 -90 -51 l-90 -44 -90 89 c-50 49 -90 94 -90 99 0 5 50 6 122 2
122 -7 122 -7 180 -48z m1148 -144 c0 -11 -29 -29 -35 -22 -5 7 -34 106 -40
138 -5 30 -1 25 34 -35 22 -38 40 -75 41 -81z m138 24 c-70 -78 -83 -87 -91
-64 -4 10 20 35 71 75 42 33 79 60 81 61 2 0 -25 -32 -61 -72z m-2245 -108
c179 -84 435 -161 717 -215 47 -9 95 -20 108 -25 23 -10 288 -193 307 -212 7
-7 -70 -8 -239 -4 -221 6 -252 9 -276 26 -26 19 -138 60 -163 60 -31 0 -356
114 -426 150 -42 21 -114 63 -160 94 -58 39 -94 56 -115 56 -18 0 -37 5 -43
11 -14 14 -6 69 18 117 11 20 19 49 19 64 l0 28 76 -51 c42 -28 122 -73 177
-99z m2047 20 c0 -12 -24 -12 -60 0 -21 7 -19 8 18 9 23 1 42 -3 42 -9z m-510
-46 c0 -15 -40 -115 -90 -222 -49 -107 -90 -198 -90 -202 0 -14 -30 -20 -95
-20 l-64 0 -205 136 c-113 75 -206 140 -206 143 0 4 123 20 273 35 149 16 274
30 276 32 2 2 -96 4 -218 4 l-222 0 3 28 c3 31 -21 27 383 66 132 13 243 24
248 25 4 0 7 -11 7 -25z m764 6 c17 -7 15 -9 -15 -9 -20 -1 -51 -4 -68 -7 -27
-6 -31 -4 -31 16 0 21 3 22 46 15 26 -3 56 -10 68 -15z m-310 -141 c-32 -32
-60 -57 -62 -55 -2 2 23 46 55 98 l58 93 3 -39 c3 -36 -1 -44 -54 -97z m220
30 c15 -22 26 -42 24 -44 -9 -9 -81 63 -74 73 12 20 22 14 50 -29z m-125 -22
c0 -21 -67 -200 -68 -184 -1 9 37 186 44 205 7 20 25 4 24 -21z m61 4 c0 -10
2 -40 5 -67 l5 -49 -14 35 c-25 66 -29 100 -12 100 9 0 16 -8 16 -19z"/>
</g>
</svg>
